<svg width="130" height="130" viewBox="0 0 130 130" fill="none" xmlns="http://www.w3.org/2000/svg">
<path d="M65.0163 113.75C58.2779 113.75 51.9404 112.472 46.0037 109.915C40.0707 107.355 34.9086 103.881 30.5175 99.4933C26.1264 95.1058 22.6507 89.9492 20.0904 84.0233C17.5301 78.0975 16.25 71.7618 16.25 65.0163C16.25 58.2707 17.5301 51.9332 20.0904 46.0038C22.6471 40.0707 26.1156 34.9086 30.4958 30.5175C34.8761 26.1264 40.0346 22.6507 45.9713 20.0904C51.9079 17.5301 58.2454 16.25 64.9837 16.25C71.7221 16.25 78.0596 17.5301 83.9962 20.0904C89.9293 22.6471 95.0914 26.1174 99.4825 30.5013C103.874 34.8851 107.349 40.0436 109.91 45.9767C112.47 51.9097 113.75 58.2454 113.75 64.9838C113.75 71.7221 112.472 78.0596 109.915 83.9963C107.358 89.9329 103.884 95.095 99.4933 99.4825C95.1022 103.87 89.9456 107.346 84.0233 109.91C78.1011 112.473 71.7654 113.754 65.0163 113.75ZM65 108.333C77.0972 108.333 87.3437 104.135 95.7396 95.7396C104.135 87.3438 108.333 77.0972 108.333 65C108.333 52.9028 104.135 42.6562 95.7396 34.2604C87.3437 25.8646 77.0972 21.6667 65 21.6667C52.9028 21.6667 42.6562 25.8646 34.2604 34.2604C25.8646 42.6562 21.6667 52.9028 21.6667 65C21.6667 77.0972 25.8646 87.3438 34.2604 95.7396C42.6562 104.135 52.9028 108.333 65 108.333ZM65.0271 92.0833C57.5088 92.0833 51.1117 89.4526 45.8358 84.1913C40.56 78.9299 37.9203 72.5418 37.9167 65.0271C37.9131 57.5124 40.5437 51.1117 45.8087 45.825C51.0737 40.5383 57.4618 37.9022 64.9729 37.9167C72.484 37.9311 78.8829 40.5618 84.1696 45.8088C89.4562 51.0557 92.0942 57.4438 92.0833 64.9729C92.0725 72.5021 89.4418 78.901 84.1912 84.1696C78.9407 89.4382 72.5526 92.0761 65.0271 92.0833ZM65 86.6667C70.9583 86.6667 76.059 84.5451 80.3021 80.3021C84.5451 76.059 86.6667 70.9583 86.6667 65C86.6667 59.0417 84.5451 53.941 80.3021 49.6979C76.059 45.4549 70.9583 43.3333 65 43.3333C59.0417 43.3333 53.941 45.4549 49.6979 49.6979C45.4549 53.941 43.3333 59.0417 43.3333 65C43.3333 70.9583 45.4549 76.059 49.6979 80.3021C53.941 84.5451 59.0417 86.6667 65 86.6667ZM65 70.4167C63.5483 70.4167 62.2826 69.8768 61.2029 68.7971C60.1232 67.7174 59.5833 66.4517 59.5833 65C59.5833 63.5483 60.1232 62.2826 61.2029 61.2029C62.2826 60.1232 63.5483 59.5833 65 59.5833C66.4517 59.5833 67.7174 60.1232 68.7971 61.2029C69.8768 62.2826 70.4167 63.5483 70.4167 65C70.4167 66.4517 69.8768 67.7174 68.7971 68.7971C67.7174 69.8768 66.4517 70.4167 65 70.4167Z" fill="#333333"/>
</svg>
