<svg width="130" height="130" viewBox="0 0 130 130" fill="none" xmlns="http://www.w3.org/2000/svg">
<path d="M16.25 65H21.6667M65 16.25V21.6667M108.333 65H113.75M30.3333 30.3333L34.125 34.125M99.6667 30.3333L95.875 34.125M52.5417 92.0833H77.4583M48.75 86.6667C44.2025 83.2561 40.8435 78.5011 39.1486 73.0754C37.4537 67.6496 37.509 61.8281 39.3065 56.4355C41.104 51.0429 44.5527 46.3525 49.1641 43.0289C53.7755 39.7052 59.3157 37.9167 65 37.9167C70.6843 37.9167 76.2245 39.7052 80.8359 43.0289C85.4473 46.3525 88.896 51.0429 90.6935 56.4355C92.491 61.8281 92.5463 67.6496 90.8514 73.0754C89.1565 78.5011 85.7975 83.2561 81.25 86.6667C79.1352 88.7601 77.5428 91.322 76.6018 94.145C75.6608 96.9681 75.3975 99.973 75.8333 102.917C75.8333 105.79 74.692 108.545 72.6603 110.577C70.6287 112.609 67.8732 113.75 65 113.75C62.1268 113.75 59.3713 112.609 57.3397 110.577C55.308 108.545 54.1667 105.79 54.1667 102.917C54.6025 99.973 54.3392 96.9681 53.3982 94.145C52.4572 91.322 50.8648 88.7601 48.75 86.6667Z" stroke="#333333" stroke-width="6.66667" stroke-linecap="round" stroke-linejoin="round"/>
</svg>
