<svg width="150" height="150" viewBox="0 0 150 150" fill="none" xmlns="http://www.w3.org/2000/svg">
<path d="M100 68.75C110.375 68.75 118.687 60.375 118.687 50C118.687 39.625 110.375 31.25 100 31.25C89.625 31.25 81.25 39.625 81.25 50C81.25 60.375 89.625 68.75 100 68.75ZM50 68.75C60.375 68.75 68.6875 60.375 68.6875 50C68.6875 39.625 60.375 31.25 50 31.25C39.625 31.25 31.25 39.625 31.25 50C31.25 60.375 39.625 68.75 50 68.75ZM50 81.25C35.4375 81.25 6.25 88.5625 6.25 103.125V118.75H93.75V103.125C93.75 88.5625 64.5625 81.25 50 81.25ZM100 81.25C98.1875 81.25 96.125 81.375 93.9375 81.5625C101.187 86.8125 106.25 93.875 106.25 103.125V118.75H143.75V103.125C143.75 88.5625 114.562 81.25 100 81.25Z" fill="#333333"/>
</svg>
