<svg width="150" height="150" viewBox="0 0 150 150" fill="none" xmlns="http://www.w3.org/2000/svg">
<path d="M31.25 125C30.3625 125 29.6208 124.7 29.025 124.1C28.4291 123.5 28.1291 122.756 28.125 121.869C28.1208 120.981 28.4208 120.24 29.025 119.644C29.6291 119.048 30.3708 118.75 31.25 118.75H40.625V30.05C40.625 28.6209 41.1041 27.4209 42.0625 26.45C43.0208 25.4792 44.2083 24.9959 45.625 25H85.625C87.0416 25 88.2291 25.4834 89.1875 26.45C90.1458 27.4167 90.625 28.6167 90.625 30.05V31.25H104.325C105.758 31.25 106.958 31.7334 107.925 32.7C108.892 33.6667 109.375 34.8667 109.375 36.3V118.75H118.75C119.637 118.75 120.379 119.05 120.975 119.65C121.571 120.25 121.871 120.994 121.875 121.881C121.879 122.769 121.579 123.51 120.975 124.106C120.371 124.702 119.629 125 118.75 125H108.231C106.744 125 105.521 124.517 104.562 123.55C103.604 122.583 103.125 121.383 103.125 119.95V37.5H90.625V119.95C90.625 121.383 90.1416 122.583 89.175 123.55C88.2083 124.517 87.0083 125 85.575 125H31.25ZM76.6875 75C76.6875 73.7084 76.2083 72.5834 75.25 71.625C74.2916 70.6667 73.1666 70.1875 71.875 70.1875C70.5833 70.1875 69.4583 70.6667 68.5 71.625C67.5416 72.5834 67.0625 73.7084 67.0625 75C67.0625 76.2917 67.5416 77.4167 68.5 78.375C69.4583 79.3334 70.5833 79.8125 71.875 79.8125C73.1666 79.8125 74.2916 79.3334 75.25 78.375C76.2083 77.4167 76.6875 76.2917 76.6875 75ZM46.875 118.75H84.375V31.25H46.875V118.75Z" fill="#333333"/>
</svg>
