<svg width="50" height="36" viewBox="0 0 50 36" fill="none" xmlns="http://www.w3.org/2000/svg">
<g clip-path="url(#clip0_108_170)">
<path d="M50 30.5C50 31.9734 49.4147 33.3865 48.3728 34.4284C47.3309 35.4703 45.9179 36.0556 44.4444 36.0556H5.55556C4.08213 36.0556 2.66905 35.4703 1.62718 34.4284C0.585316 33.3865 0 31.9734 0 30.5V5.50001C0 4.02659 0.585316 2.61351 1.62718 1.57164C2.66905 0.529774 4.08213 -0.055542 5.55556 -0.055542H44.4444C45.9179 -0.055542 47.3309 0.529774 48.3728 1.57164C49.4147 2.61351 50 4.02659 50 5.50001V30.5Z" fill="#009B3A"/>
<path d="M45.4556 18L25 33.45L4.54445 18L25 2.54858L45.4556 18Z" fill="#FEDF01"/>
<path d="M24.9667 26.8639C29.9204 26.8639 33.9361 22.8482 33.9361 17.8945C33.9361 12.9408 29.9204 8.92505 24.9667 8.92505C20.013 8.92505 15.9972 12.9408 15.9972 17.8945C15.9972 22.8482 20.013 26.8639 24.9667 26.8639Z" fill="#002776"/>
<path d="M17.0514 13.6764C16.5854 14.5542 16.2699 15.504 16.1181 16.4861C21.6667 16.0834 29.1972 19.1125 32.4292 22.8681C32.9875 22.0292 33.4014 21.0903 33.6556 20.0847C29.6667 16.1847 22.6597 13.6542 17.0514 13.6764Z" fill="#CBE9D4"/>
<path d="M16.6667 18.3236H18.0556V19.7125H16.6667V18.3236ZM18.0556 21.1014H19.4444V22.4903H18.0556V21.1014Z" fill="#88C9F9"/>
<path d="M20.8333 18.3236H22.2222V19.7124H20.8333V18.3236ZM23.6111 19.7124H25V21.1013H23.6111V19.7124ZM29.1667 22.4902H30.5556V23.8791H29.1667V22.4902ZM25 23.8791H26.3889V25.268H25V23.8791ZM29.1667 15.5458H30.5556V16.9347H29.1667V15.5458Z" fill="#55ACEE"/>
<path d="M26.3889 21.1014H27.7778V22.4903H26.3889V21.1014Z" fill="#3B88C3"/>
</g>
<defs>
<clipPath id="clip0_108_170">
<rect width="50" height="36" fill="white"/>
</clipPath>
</defs>
</svg>
