<svg width="50" height="36" viewBox="0 0 50 36" fill="none" xmlns="http://www.w3.org/2000/svg">
<g clip-path="url(#clip0_108_178)">
<path d="M49.2292 2.72224C48.2667 1.06807 46.4958 -0.055542 44.4444 -0.055542H25V2.72224H49.2292ZM0 27.7222H50V30.5H0V27.7222ZM25 16.6111H50V19.3889H25V16.6111ZM25 11.0556H50V13.8333H25V11.0556ZM0 22.1667H50V24.9445H0V22.1667ZM5.55556 36.0556H44.4444C46.4958 36.0556 48.2667 34.932 49.2292 33.2778H0.770833C1.73333 34.932 3.50417 36.0556 5.55556 36.0556ZM25 5.50001H50V8.27779H25V5.50001Z" fill="#B22334"/>
<path d="M0.0944444 31.443C0.117593 31.5726 0.144907 31.7009 0.176389 31.8277C0.213426 31.9666 0.256019 32.1036 0.304167 32.2388C0.427778 32.5986 0.577778 32.9458 0.766667 33.2708L0.770833 33.2777H49.2292L49.2319 33.2722C49.4202 32.9456 49.5747 32.6008 49.6931 32.243C49.7832 31.982 49.8538 31.7145 49.9042 31.443C49.9611 31.1374 50 30.8236 50 30.4999H0C0 30.8236 0.0388889 31.1361 0.0944444 31.443ZM0 24.9444H50V27.7222H0V24.9444ZM0 19.3888V22.1666H50V19.3888H25H0ZM25 13.8333H50V16.6111H25V13.8333ZM25 8.27772H50V11.0555H25V8.27772ZM0.177778 4.17217C0.2125 4.0305 0.261111 3.89578 0.305556 3.75967C0.257633 3.89546 0.215008 4.03306 0.177778 4.17217ZM25 5.49995H50C50 5.17633 49.9611 4.86245 49.9042 4.5555C49.8556 4.28342 49.7845 4.01584 49.6917 3.7555C49.5731 3.39621 49.4181 3.04996 49.2292 2.72217H25V5.49995Z" fill="#EEEEEE"/>
<path d="M25 -0.055542H5.55556C4.08213 -0.055542 2.66905 0.529773 1.62718 1.57164C0.585316 2.61351 0 4.02659 0 5.50001L0 19.3889H25V-0.055542Z" fill="#3C3B6E"/>
<path d="M2.77917 3.7305L3.6375 4.35411L3.30972 5.36106L4.16667 4.73883L5.025 5.36106L4.69722 4.35411L5.55556 3.7305H4.49445L4.16667 2.72217L3.84028 3.7305H2.77917ZM5.55694 6.50828L6.41528 7.13189L6.0875 8.13883L6.94444 7.51661L7.80278 8.13883L7.475 7.13189L8.33333 6.50828H7.27222L6.94444 5.49995L6.61806 6.50828H5.55694ZM11.1125 6.50828L11.9708 7.13189L11.6431 8.13883L12.5 7.51661L13.3583 8.13883L13.0306 7.13189L13.8889 6.50828H12.8278L12.5 5.49995L12.1736 6.50828H11.1125ZM16.6681 6.50828L17.5264 7.13189L17.1986 8.13883L18.0556 7.51661L18.9139 8.13883L18.5861 7.13189L19.4444 6.50828H18.3833L18.0556 5.49995L17.7292 6.50828H16.6681ZM5.55694 12.0638L6.41528 12.6874L6.0875 13.6944L6.94444 13.0722L7.80278 13.6944L7.475 12.6874L8.33333 12.0638H7.27222L6.94444 11.0555L6.61806 12.0638H5.55694ZM11.1125 12.0638L11.9708 12.6874L11.6431 13.6944L12.5 13.0722L13.3583 13.6944L13.0306 12.6874L13.8889 12.0638H12.8278L12.5 11.0555L12.1736 12.0638H11.1125ZM16.6681 12.0638L17.5264 12.6874L17.1986 13.6944L18.0556 13.0722L18.9139 13.6944L18.5861 12.6874L19.4444 12.0638H18.3833L18.0556 11.0555L17.7292 12.0638H16.6681ZM8.33472 3.7305L9.19306 4.35411L8.86528 5.36106L9.72222 4.73883L10.5806 5.36106L10.2528 4.35411L11.1111 3.7305H10.05L9.72222 2.72217L9.39583 3.7305H8.33472ZM13.8903 3.7305L14.7486 4.35411L14.4208 5.36106L15.2778 4.73883L16.1361 5.36106L15.8083 4.35411L16.6667 3.7305H15.6056L15.2778 2.72217L14.9514 3.7305H13.8903ZM19.4458 3.7305L20.3042 4.35411L19.9764 5.36106L20.8333 4.73883L21.6917 5.36106L21.3639 4.35411L22.2222 3.7305H21.1611L20.8333 2.72217L20.5069 3.7305H19.4458ZM2.77917 9.28606L3.6375 9.90967L3.30972 10.9166L4.16667 10.2944L5.025 10.9166L4.69722 9.90967L5.55556 9.28606H4.49445L4.16667 8.27772L3.84028 9.28606H2.77917ZM8.86528 10.9166L9.72222 10.2944L10.5806 10.9166L10.2528 9.90967L11.1111 9.28606H10.05L9.72222 8.27772L9.39583 9.28606H8.33472L9.19306 9.90967L8.86528 10.9166ZM13.8903 9.28606L14.7486 9.90967L14.4208 10.9166L15.2778 10.2944L16.1361 10.9166L15.8083 9.90967L16.6667 9.28606H15.6056L15.2778 8.27772L14.9514 9.28606H13.8903ZM19.4458 9.28606L20.3042 9.90967L19.9764 10.9166L20.8333 10.2944L21.6917 10.9166L21.3639 9.90967L22.2222 9.28606H21.1611L20.8333 8.27772L20.5069 9.28606H19.4458ZM2.77917 14.8416L3.6375 15.4652L3.30972 16.4722L4.16667 15.8499L5.025 16.4722L4.69722 15.4652L5.55556 14.8416H4.49445L4.16667 13.8333L3.84028 14.8416H2.77917ZM8.86528 16.4722L9.72222 15.8499L10.5806 16.4722L10.2528 15.4652L11.1111 14.8416H10.05L9.72222 13.8333L9.39583 14.8416H8.33472L9.19306 15.4652L8.86528 16.4722ZM13.8903 14.8416L14.7486 15.4652L14.4208 16.4722L15.2778 15.8499L16.1361 16.4722L15.8083 15.4652L16.6667 14.8416H15.6056L15.2778 13.8333L14.9514 14.8416H13.8903ZM19.4458 14.8416L20.3042 15.4652L19.9764 16.4722L20.8333 15.8499L21.6917 16.4722L21.3639 15.4652L22.2222 14.8416H21.1611L20.8333 13.8333L20.5069 14.8416H19.4458Z" fill="white"/>
</g>
<defs>
<clipPath id="clip0_108_178">
<rect width="50" height="36" fill="white"/>
</clipPath>
</defs>
</svg>
