<svg width="55" height="55" viewBox="0 0 55 55" fill="none" xmlns="http://www.w3.org/2000/svg">
<g clip-path="url(#clip0_8_18)">
<path d="M25.0697 5.15623C25.7143 4.5118 26.5885 4.14978 27.5 4.14978C28.4115 4.14978 29.2857 4.5118 29.9303 5.15623L37.8125 13.0384V8.59373C37.8125 8.13789 37.9936 7.70072 38.3159 7.37839C38.6382 7.05607 39.0754 6.87498 39.5312 6.87498H42.9687C43.4246 6.87498 43.8617 7.05607 44.1841 7.37839C44.5064 7.70072 44.6875 8.13789 44.6875 8.59373V19.9134L52.7794 28.0019C52.9392 28.1617 53.0659 28.3514 53.1524 28.5602C53.2389 28.769 53.2834 28.9927 53.2834 29.2187C53.2834 29.4447 53.2389 29.6685 53.1524 29.8773C53.0659 30.0861 52.9392 30.2758 52.7794 30.4356C52.6195 30.5954 52.4298 30.7222 52.221 30.8087C52.0123 30.8951 51.7885 30.9397 51.5625 30.9397C51.3365 30.9397 51.1127 30.8951 50.9039 30.8087C50.6951 30.7222 50.5054 30.5954 50.3456 30.4356L27.5 7.58655L10.3125 24.774V46.4062C10.3125 46.8621 10.4936 47.2993 10.8159 47.6216C11.1382 47.9439 11.5754 48.125 12.0312 48.125H25.7812C26.2371 48.125 26.6742 48.3061 26.9966 48.6284C27.3189 48.9507 27.5 49.3879 27.5 49.8437C27.5 50.2996 27.3189 50.7368 26.9966 51.0591C26.6742 51.3814 26.2371 51.5625 25.7812 51.5625H12.0312C10.6637 51.5625 9.35219 51.0192 8.38521 50.0523C7.41822 49.0853 6.87497 47.7738 6.87497 46.4062V28.2115L4.65435 30.4356C4.49455 30.5954 4.30483 30.7222 4.09604 30.8087C3.88725 30.8951 3.66347 30.9397 3.43747 30.9397C3.21148 30.9397 2.9877 30.8951 2.77891 30.8087C2.57011 30.7222 2.3804 30.5954 2.2206 30.4356C2.0608 30.2758 1.93403 30.0861 1.84755 29.8773C1.76107 29.6685 1.71655 29.4447 1.71655 29.2187C1.71655 28.9927 1.76107 28.769 1.84755 28.5602C1.93403 28.3514 2.0608 28.1617 2.2206 28.0019L25.0697 5.15623Z" fill="#333333"/>
<path d="M40.8581 32.5187C41.4769 30.4116 44.4606 30.4116 45.0828 32.5187L45.2306 33.0275C45.3229 33.3431 45.4848 33.6339 45.7044 33.8787C45.9239 34.1235 46.1955 34.3159 46.4993 34.4419C46.803 34.5679 47.1311 34.6242 47.4594 34.6066C47.7877 34.5891 48.108 34.4982 48.3966 34.3406L48.8641 34.0862C50.7925 33.0344 52.9031 35.145 51.8547 37.0734L51.5969 37.5409C51.4399 37.8294 51.3495 38.1493 51.3323 38.4772C51.3152 38.8052 51.3716 39.1328 51.4975 39.4361C51.6234 39.7393 51.8157 40.0106 52.0601 40.2299C52.3045 40.4492 52.5949 40.611 52.91 40.7034L53.4222 40.8581C55.5259 41.4769 55.5259 44.4606 53.4222 45.0828L52.9066 45.2306C52.5916 45.3237 52.3014 45.4862 52.0574 45.7061C51.8134 45.9259 51.6218 46.1977 51.4965 46.5013C51.3712 46.8049 51.3155 47.1327 51.3335 47.4607C51.3515 47.7887 51.4426 48.1084 51.6003 48.3966L51.8547 48.8641C52.9031 50.7925 50.7925 52.9031 48.8641 51.8547L48.3966 51.5969C48.1081 51.4399 47.7882 51.3495 47.4603 51.3323C47.1323 51.3152 46.8047 51.3716 46.5014 51.4975C46.1982 51.6234 45.9269 51.8157 45.7076 52.0601C45.4883 52.3045 45.3265 52.5949 45.2341 52.91L45.0794 53.4222C44.4606 55.5259 41.4769 55.5259 40.8547 53.4222L40.7069 52.9066C40.6138 52.5916 40.4513 52.3014 40.2314 52.0574C40.0116 51.8134 39.7398 51.6218 39.4362 51.4965C39.1326 51.3712 38.8048 51.3155 38.4768 51.3335C38.1488 51.3515 37.8291 51.4426 37.5409 51.6003L37.0734 51.8547C35.145 52.9031 33.0344 50.7925 34.0828 48.8641L34.3406 48.3966C34.4976 48.1081 34.588 47.7882 34.6051 47.4603C34.6223 47.1323 34.5659 46.8047 34.44 46.5014C34.314 46.1982 34.1218 45.9269 33.8774 45.7076C33.633 45.4883 33.3426 45.3265 33.0275 45.2341L32.5187 45.0828C30.4116 44.4606 30.4116 41.4769 32.5187 40.8547L33.0275 40.7069C33.3431 40.6145 33.6339 40.4527 33.8787 40.2331C34.1235 40.0136 34.3159 39.742 34.4419 39.4382C34.5679 39.1345 34.6242 38.8064 34.6066 38.4781C34.5891 38.1497 34.4982 37.8295 34.3406 37.5409L34.0862 37.0734C33.0344 35.145 35.145 33.0344 37.0734 34.0828L37.5409 34.3406C37.8294 34.4976 38.1493 34.588 38.4772 34.6051C38.8052 34.6223 39.1328 34.5659 39.4361 34.44C39.7393 34.314 40.0106 34.1218 40.2299 33.8774C40.4492 33.633 40.611 33.3426 40.7034 33.0275L40.8581 32.5187ZM48.125 42.9687C48.125 42.2916 47.9916 41.6211 47.7325 40.9955C47.4734 40.3699 47.0936 39.8015 46.6148 39.3227C46.136 38.8439 45.5675 38.4641 44.942 38.205C44.3164 37.9459 43.6459 37.8125 42.9687 37.8125C42.2916 37.8125 41.6211 37.9459 40.9955 38.205C40.3699 38.4641 39.8015 38.8439 39.3227 39.3227C38.8439 39.8015 38.4641 40.3699 38.205 40.9955C37.9459 41.6211 37.8125 42.2916 37.8125 42.9687C37.8125 44.3363 38.3557 45.6478 39.3227 46.6148C40.2897 47.5818 41.6012 48.125 42.9687 48.125C44.3363 48.125 45.6478 47.5818 46.6148 46.6148C47.5818 45.6478 48.125 44.3363 48.125 42.9687Z" fill="#333333"/>
</g>
<defs>
<clipPath id="clip0_8_18">
<rect width="55" height="55" fill="white"/>
</clipPath>
</defs>
</svg>
