<svg width="55" height="55" viewBox="0 0 55 55" fill="none" xmlns="http://www.w3.org/2000/svg">
<path d="M25.9198 23.5804C26.5385 21.4732 29.5223 21.4732 30.1445 23.5804L30.2923 24.0891C30.3846 24.4047 30.5465 24.6956 30.766 24.9404C30.9856 25.1851 31.2572 25.3776 31.5609 25.5036C31.8646 25.6295 32.1927 25.6858 32.521 25.6683C32.8494 25.6508 33.1696 25.5599 33.4582 25.4023L33.9257 25.1479C35.8541 24.096 37.9648 26.2066 36.9163 28.1351L36.6585 28.6026C36.5016 28.891 36.4112 29.2109 36.394 29.5389C36.3768 29.8668 36.4332 30.1944 36.5592 30.4977C36.6851 30.801 36.8773 31.0722 37.1217 31.2915C37.3661 31.5108 37.6565 31.6726 37.9716 31.7651L38.4838 31.9198C40.5876 32.5385 40.5876 35.5223 38.4838 36.1445L37.9682 36.2923C37.6532 36.3854 37.3631 36.5478 37.1191 36.7677C36.8751 36.9876 36.6834 37.2593 36.5581 37.5629C36.4329 37.8666 36.3772 38.1944 36.3951 38.5223C36.4131 38.8503 36.5043 39.1701 36.662 39.4582L36.9163 39.9257C37.9648 41.8541 35.8541 43.9648 33.9257 42.9163L33.4582 42.6585C33.1698 42.5016 32.8498 42.4112 32.5219 42.394C32.194 42.3768 31.8664 42.4332 31.5631 42.5592C31.2598 42.6851 30.9886 42.8773 30.7693 43.1217C30.55 43.3661 30.3881 43.6565 30.2957 43.9716L30.141 44.4838C29.5223 46.5876 26.5385 46.5876 25.9163 44.4838L25.7685 43.9682C25.6754 43.6532 25.513 43.3631 25.2931 43.1191C25.0732 42.8751 24.8015 42.6834 24.4979 42.5581C24.1942 42.4329 23.8664 42.3772 23.5384 42.3951C23.2105 42.4131 22.8907 42.5043 22.6026 42.662L22.1351 42.9163C20.2066 43.9648 18.096 41.8541 19.1445 39.9257L19.4023 39.4582C19.5592 39.1698 19.6496 38.8498 19.6668 38.5219C19.684 38.194 19.6275 37.8664 19.5016 37.5631C19.3757 37.2598 19.1835 36.9886 18.9391 36.7693C18.6946 36.55 18.4042 36.3881 18.0891 36.2957L17.5804 36.1445C15.4732 35.5223 15.4732 32.5385 17.5804 31.9163L18.0891 31.7685C18.4047 31.6762 18.6956 31.5143 18.9404 31.2948C19.1851 31.0752 19.3776 30.8036 19.5036 30.4999C19.6295 30.1962 19.6858 29.8681 19.6683 29.5397C19.6508 29.2114 19.5599 28.8912 19.4023 28.6026L19.1479 28.1351C18.096 26.2066 20.2066 24.096 22.1351 25.1445L22.6026 25.4023C22.891 25.5592 23.2109 25.6496 23.5389 25.6668C23.8668 25.684 24.1944 25.6275 24.4977 25.5016C24.801 25.3757 25.0722 25.1835 25.2915 24.9391C25.5108 24.6946 25.6726 24.4042 25.7651 24.0891L25.9198 23.5804ZM33.1866 34.0304C33.1866 33.3533 33.0533 32.6828 32.7941 32.0572C32.535 31.4316 32.1552 30.8632 31.6764 30.3844C31.1976 29.9056 30.6292 29.5258 30.0036 29.2666C29.378 29.0075 28.7075 28.8741 28.0304 28.8741C27.3533 28.8741 26.6828 29.0075 26.0572 29.2666C25.4316 29.5258 24.8632 29.9056 24.3844 30.3844C23.9056 30.8632 23.5258 31.4316 23.2666 32.0572C23.0075 32.6828 22.8741 33.3533 22.8741 34.0304C22.8741 35.3979 23.4174 36.7094 24.3844 37.6764C25.3514 38.6434 26.6629 39.1866 28.0304 39.1866C29.3979 39.1866 30.7094 38.6434 31.6764 37.6764C32.6434 36.7094 33.1866 35.3979 33.1866 34.0304Z" fill="#333333"/>
<path d="M47.25 6H9.4375C8.52582 6 7.65148 6.36216 7.00682 7.00682C6.36216 7.65148 6 8.52582 6 9.4375V47.25C6 48.1617 6.36216 49.036 7.00682 49.6807C7.65148 50.3253 8.52582 50.6875 9.4375 50.6875H47.25C48.1617 50.6875 49.036 50.3253 49.6807 49.6807C50.3253 49.036 50.6875 48.1617 50.6875 47.25V9.4375C50.6875 8.52582 50.3253 7.65148 49.6807 7.00682C49.036 6.36216 48.1617 6 47.25 6ZM9.4375 9.4375H47.25V16.3125H9.4375V9.4375ZM9.4375 47.25V19.75H47.25V47.25H9.4375Z" fill="#333333"/>
</svg>
