<svg width="55" height="55" viewBox="0 0 55 55" fill="none" xmlns="http://www.w3.org/2000/svg">
<path d="M50.3679 18.9819L46.3117 11.9556C45.9144 11.2669 45.2907 10.7372 44.5467 10.4567C43.8027 10.1762 42.9845 10.1623 42.2314 10.4173L38.0479 11.8336C37.3271 11.348 36.5737 10.9127 35.7929 10.5308L34.9267 6.19953C34.7706 5.42059 34.3495 4.71976 33.735 4.21621C33.1206 3.71267 32.3507 3.4375 31.5562 3.4375H23.4437C22.6491 3.43758 21.879 3.713 21.2645 4.21688C20.65 4.72076 20.229 5.42199 20.0733 6.20125L19.207 10.5308C18.4177 10.9089 17.6556 11.3413 16.9262 11.825L12.7669 10.4173C12.0142 10.1632 11.1968 10.1775 10.4535 10.458C9.7103 10.7384 9.08712 11.2676 8.68998 11.9556L4.63373 18.9819C4.23637 19.6699 4.08961 20.4743 4.21839 21.2583C4.34718 22.0423 4.74356 22.7575 5.34013 23.2822L8.65904 26.1989C8.62982 26.632 8.59373 27.0617 8.59373 27.5C8.59373 27.9434 8.60977 28.3823 8.64185 28.8166L5.34185 31.7178C4.74473 32.2421 4.34768 32.9571 4.21827 33.7411C4.08885 34.5251 4.23505 35.3297 4.63201 36.0181L8.68826 43.0444C9.08554 43.7331 9.70929 44.2628 10.4533 44.5433C11.1973 44.8238 12.0155 44.8377 12.7686 44.5827L16.952 43.1664C17.6728 43.6526 18.4262 44.0885 19.207 44.4709L20.0715 48.7988C20.2274 49.5783 20.6485 50.2797 21.2634 50.7837C21.8783 51.2876 22.6488 51.5628 23.4437 51.5625H25.7812V48.125H23.4437L22.2234 42.0234C20.5354 41.3962 18.9683 40.4821 17.5914 39.3216L11.6669 41.3256L7.6106 34.2994L12.2942 30.183C11.9728 28.4057 11.9687 26.5855 12.2822 24.8067L7.6106 20.6989L11.6669 13.6744L17.557 15.6681C18.9431 14.5049 20.5225 13.5939 22.2234 12.9766L23.4437 6.875H31.5562L32.7765 12.9766C34.4646 13.6038 36.0316 14.5179 37.4086 15.6784L43.3331 13.6744L47.3893 20.7006L42.5803 24.915L44.8456 27.5L49.6581 23.2822C50.2552 22.7579 50.6523 22.0429 50.7817 21.2589C50.9111 20.4749 50.7649 19.6703 50.3679 18.9819Z" fill="#333333"/>
<path d="M36.9198 29.5804C37.5385 27.4732 40.5223 27.4732 41.1445 29.5804L41.2923 30.0891C41.3846 30.4047 41.5465 30.6956 41.766 30.9404C41.9856 31.1851 42.2572 31.3776 42.5609 31.5036C42.8646 31.6295 43.1927 31.6858 43.5211 31.6683C43.8494 31.6508 44.1696 31.5599 44.4582 31.4023L44.9257 31.1479C46.8541 30.096 48.9648 32.2066 47.9163 34.1351L47.6585 34.6026C47.5016 34.891 47.4112 35.2109 47.394 35.5389C47.3768 35.8668 47.4332 36.1944 47.5592 36.4977C47.6851 36.801 47.8773 37.0722 48.1217 37.2915C48.3661 37.5108 48.6565 37.6726 48.9716 37.7651L49.4838 37.9198C51.5876 38.5385 51.5876 41.5223 49.4838 42.1445L48.9682 42.2923C48.6532 42.3854 48.3631 42.5478 48.1191 42.7677C47.8751 42.9876 47.6834 43.2593 47.5581 43.5629C47.4329 43.8666 47.3772 44.1944 47.3951 44.5223C47.4131 44.8503 47.5043 45.1701 47.662 45.4582L47.9163 45.9257C48.9648 47.8541 46.8541 49.9648 44.9257 48.9163L44.4582 48.6585C44.1698 48.5016 43.8498 48.4112 43.5219 48.394C43.194 48.3768 42.8664 48.4332 42.5631 48.5592C42.2598 48.6851 41.9886 48.8773 41.7693 49.1217C41.55 49.3661 41.3881 49.6565 41.2957 49.9716L41.141 50.4838C40.5223 52.5876 37.5385 52.5876 36.9163 50.4838L36.7685 49.9682C36.6754 49.6532 36.513 49.3631 36.2931 49.1191C36.0732 48.8751 35.8015 48.6834 35.4979 48.5581C35.1942 48.4329 34.8664 48.3772 34.5384 48.3951C34.2105 48.4131 33.8907 48.5043 33.6026 48.662L33.1351 48.9163C31.2066 49.9648 29.096 47.8541 30.1445 45.9257L30.4023 45.4582C30.5592 45.1698 30.6496 44.8498 30.6668 44.5219C30.684 44.194 30.6275 43.8664 30.5016 43.5631C30.3757 43.2598 30.1835 42.9886 29.9391 42.7693C29.6946 42.55 29.4042 42.3881 29.0891 42.2957L28.5804 42.1445C26.4732 41.5223 26.4732 38.5385 28.5804 37.9163L29.0891 37.7685C29.4047 37.6762 29.6956 37.5143 29.9404 37.2948C30.1851 37.0752 30.3776 36.8036 30.5036 36.4999C30.6295 36.1962 30.6858 35.8681 30.6683 35.5397C30.6508 35.2114 30.5599 34.8912 30.4023 34.6026L30.1479 34.1351C29.096 32.2066 31.2066 30.096 33.1351 31.1445L33.6026 31.4023C33.891 31.5592 34.2109 31.6496 34.5389 31.6668C34.8668 31.684 35.1944 31.6275 35.4977 31.5016C35.801 31.3757 36.0722 31.1835 36.2915 30.9391C36.5108 30.6946 36.6726 30.4042 36.7651 30.0891L36.9198 29.5804ZM44.1866 40.0304C44.1866 39.3533 44.0533 38.6828 43.7941 38.0572C43.535 37.4316 43.1552 36.8632 42.6764 36.3844C42.1976 35.9056 41.6292 35.5258 41.0036 35.2666C40.378 35.0075 39.7075 34.8741 39.0304 34.8741C38.3533 34.8741 37.6828 35.0075 37.0572 35.2666C36.4316 35.5258 35.8632 35.9056 35.3844 36.3844C34.9056 36.8632 34.5258 37.4316 34.2666 38.0572C34.0075 38.6828 33.8741 39.3533 33.8741 40.0304C33.8741 41.3979 34.4174 42.7094 35.3844 43.6764C36.3514 44.6434 37.6629 45.1866 39.0304 45.1866C40.3979 45.1866 41.7094 44.6434 42.6764 43.6764C43.6434 42.7094 44.1866 41.3979 44.1866 40.0304Z" fill="#333333"/>
</svg>
