<svg width="55" height="55" viewBox="0 0 55 55" fill="none" xmlns="http://www.w3.org/2000/svg">
<path d="M34.375 4.58325H13.75C12.5344 4.58325 11.3686 5.06614 10.5091 5.92568C9.64951 6.78522 9.16663 7.95101 9.16663 9.16658V45.8332C9.16663 47.0488 9.64951 48.2146 10.5091 49.0742C11.3686 49.9337 12.5344 50.4166 13.75 50.4166H41.25C42.4655 50.4166 43.6313 49.9337 44.4909 49.0742C45.3504 48.2146 45.8333 47.0488 45.8333 45.8332V16.0416L34.375 4.58325Z" stroke="#333333" stroke-width="4.16667" stroke-linecap="round" stroke-linejoin="round"/>
<path d="M32.0833 4.58325V13.7499C32.0833 14.9655 32.5661 16.1313 33.4257 16.9908C34.2852 17.8504 35.451 18.3333 36.6666 18.3333H45.8333" stroke="#333333" stroke-width="4.16667" stroke-linecap="round" stroke-linejoin="round"/>
</svg>
