<svg width="55" height="55" viewBox="0 0 55 55" fill="none" xmlns="http://www.w3.org/2000/svg">
<path d="M39.5312 4.58325C40.3588 4.58325 41.1783 4.74626 41.9429 5.06297C42.7075 5.37968 43.4023 5.84389 43.9875 6.42909C44.5727 7.01429 45.0369 7.70903 45.3536 8.47363C45.6703 9.23824 45.8333 10.0577 45.8333 10.8853V44.1145C45.8333 44.9421 45.6703 45.7616 45.3536 46.5262C45.0369 47.2908 44.5727 47.9855 43.9875 48.5707C43.4023 49.156 42.7075 49.6202 41.9429 49.9369C41.1783 50.2536 40.3588 50.4166 39.5312 50.4166H15.4687C14.6409 50.4166 13.8212 50.2535 13.0565 49.9367C12.2917 49.6198 11.5969 49.1554 11.0117 48.5699C10.4264 47.9845 9.96226 47.2895 9.64569 46.5246C9.32911 45.7598 9.16633 44.94 9.16663 44.1122V10.8853C9.16663 7.99784 11.1054 5.56867 13.75 4.81929V8.59367C13.0533 9.11617 12.6041 9.94575 12.6041 10.8853V44.1099C12.6041 45.6912 13.8875 46.9745 15.4687 46.9745H39.5312C41.1125 46.9745 42.3958 45.6912 42.3958 44.1099V10.8853C42.3958 9.30409 41.1125 8.02075 39.5312 8.02075H34.375V4.58325H39.5312ZM32.0833 4.58325V23.2351C32.0833 24.947 30.25 25.5887 29.127 24.986L28.9391 24.8668L24.067 21.922L19.305 24.7889C18.1591 25.6139 16.257 25.1097 16.0577 23.5101L16.0416 23.2374V4.58325H32.0833ZM28.6458 8.02075H19.4791V20.6776L23.0839 18.5028C23.371 18.3496 23.6895 18.265 24.0148 18.2554C24.34 18.2459 24.663 18.3117 24.9585 18.4478L28.6481 20.6799L28.6458 8.02075Z" fill="#333333"/>
</svg>
