<svg width="55" height="55" viewBox="0 0 55 55" fill="none" xmlns="http://www.w3.org/2000/svg">
<path d="M39.5312 44.6875C41.4297 44.6875 42.9688 43.1485 42.9688 41.25C42.9688 39.3515 41.4297 37.8125 39.5312 37.8125C37.6328 37.8125 36.0938 39.3515 36.0938 41.25C36.0938 43.1485 37.6328 44.6875 39.5312 44.6875Z" fill="#333333"/>
<path d="M52.898 40.3546C51.836 37.6491 50.0034 35.3147 47.6274 33.6407C45.2514 31.9668 42.4364 31.0269 39.5313 30.9376C36.6262 31.0269 33.8111 31.9668 31.4351 33.6407C29.0591 35.3147 27.2265 37.6491 26.1645 40.3546L25.7813 41.2501L26.1645 42.1472C27.2268 44.8524 29.0595 47.1865 31.4355 48.8601C33.8115 50.5337 36.6264 51.4733 39.5313 51.5626C42.4362 51.4733 45.251 50.5337 47.627 48.8601C50.003 47.1865 51.8357 44.8524 52.898 42.1472L53.2813 41.2501L52.898 40.3546ZM39.5313 48.1251C38.1715 48.1251 36.8423 47.7218 35.7117 46.9664C34.5811 46.211 33.6999 45.1372 33.1796 43.881C32.6592 42.6248 32.5231 41.2424 32.7884 39.9088C33.0536 38.5752 33.7084 37.3502 34.6699 36.3887C35.6314 35.4272 36.8564 34.7724 38.19 34.5072C39.5236 34.2419 40.906 34.378 42.1622 34.8984C43.4184 35.4187 44.4922 36.2999 45.2476 37.4305C46.003 38.5611 46.4063 39.8903 46.4063 41.2501C46.404 43.0727 45.6789 44.8201 44.3901 46.1089C43.1013 47.3977 41.3539 48.1228 39.5313 48.1251ZM21.3108 35.7501C19.9049 34.6952 18.7919 33.2984 18.0775 31.6924C17.3632 30.0864 17.0712 28.3245 17.2293 26.5739C17.3874 24.8234 17.9902 23.1423 18.9807 21.6902C19.9712 20.2382 21.3163 19.0634 22.8885 18.2774C24.4607 17.4914 26.2076 17.1203 27.9635 17.1993C29.7194 17.2783 31.426 17.8048 32.9212 18.7288C34.4165 19.6528 35.6507 20.9436 36.5067 22.4788C37.3628 24.0139 37.8123 25.7424 37.8125 27.5001H34.375C34.375 26.3282 34.0754 25.1757 33.5048 24.1522C32.9341 23.1286 32.1113 22.2679 31.1144 21.6518C30.1175 21.0357 28.9797 20.6847 27.809 20.632C26.6383 20.5793 25.4736 20.8268 24.4254 21.3509C23.3772 21.875 22.4804 22.6583 21.8201 23.6264C21.1599 24.5946 20.758 25.7155 20.6528 26.8826C20.5475 28.0498 20.7424 29.2245 21.2188 30.2951C21.6953 31.3658 22.4375 32.2969 23.375 33.0001L21.3108 35.7501Z" fill="#333333"/>
<path d="M50.3679 18.9819L46.3117 11.9556C45.9144 11.2669 45.2907 10.7372 44.5467 10.4567C43.8027 10.1762 42.9845 10.1623 42.2314 10.4173L38.0479 11.8336C37.3271 11.348 36.5737 10.9127 35.7929 10.5308L34.9267 6.19953C34.7706 5.42059 34.3495 4.71976 33.735 4.21621C33.1206 3.71267 32.3507 3.4375 31.5562 3.4375H23.4437C22.6491 3.43758 21.879 3.713 21.2645 4.21688C20.65 4.72076 20.229 5.42199 20.0733 6.20125L19.207 10.5308C18.4177 10.9089 17.6556 11.3413 16.9262 11.825L12.7669 10.4173C12.0142 10.1632 11.1968 10.1775 10.4535 10.458C9.7103 10.7384 9.08712 11.2676 8.68998 11.9556L4.63373 18.9819C4.23637 19.6699 4.08961 20.4743 4.21839 21.2583C4.34718 22.0423 4.74356 22.7575 5.34013 23.2822L8.65904 26.1989C8.62982 26.632 8.59373 27.0617 8.59373 27.5C8.59373 27.9434 8.60977 28.3823 8.64185 28.8166L5.34185 31.7178C4.74473 32.2421 4.34768 32.9571 4.21827 33.7411C4.08885 34.5251 4.23505 35.3297 4.63201 36.0181L8.68826 43.0444C9.08554 43.7331 9.70929 44.2628 10.4533 44.5433C11.1973 44.8238 12.0155 44.8377 12.7686 44.5827L16.952 43.1664C17.6728 43.6526 18.4262 44.0885 19.207 44.4709L20.0715 48.7988C20.2274 49.5783 20.6485 50.2797 21.2634 50.7837C21.8783 51.2876 22.6488 51.5628 23.4437 51.5625H25.7812V48.125H23.4437L22.2234 42.0234C20.5354 41.3962 18.9683 40.4821 17.5914 39.3216L11.6669 41.3256L7.6106 34.2994L12.2942 30.183C11.9728 28.4057 11.9687 26.5855 12.2822 24.8067L7.6106 20.6989L11.6669 13.6744L17.557 15.6681C18.9431 14.5049 20.5225 13.5939 22.2234 12.9766L23.4437 6.875H31.5562L32.7765 12.9766C34.4646 13.6038 36.0316 14.5179 37.4086 15.6784L43.3331 13.6744L47.3893 20.7006L42.5803 24.915L44.8456 27.5L49.6581 23.2822C50.2552 22.7579 50.6523 22.0429 50.7817 21.2589C50.9111 20.4749 50.7649 19.6703 50.3679 18.9819Z" fill="#333333"/>
</svg>
