<svg width="55" height="55" viewBox="0 0 55 55" fill="none" xmlns="http://www.w3.org/2000/svg">
<path d="M27.5 36.0938C29.3985 36.0938 30.9375 34.5547 30.9375 32.6562C30.9375 30.7578 29.3985 29.2188 27.5 29.2188C25.6015 29.2188 24.0625 30.7578 24.0625 32.6562C24.0625 34.5547 25.6015 36.0938 27.5 36.0938Z" fill="#333333"/>
<path d="M40.8667 31.7608C39.8047 29.0553 37.9722 26.7209 35.5961 25.0469C33.2201 23.373 30.4051 22.4331 27.5 22.3438C24.5949 22.4331 21.7799 23.373 19.4039 25.0469C17.0278 26.7209 15.1953 29.0553 14.1333 31.7608L13.75 32.6562L14.1333 33.5534C15.1955 36.2586 17.0282 38.5927 19.4042 40.2663C21.7802 41.9399 24.5951 42.8795 27.5 42.9688C30.4049 42.8795 33.2198 41.9399 35.5958 40.2663C37.9718 38.5927 39.8045 36.2586 40.8667 33.5534L41.25 32.6562L40.8667 31.7608ZM27.5 39.5312C26.1403 39.5312 24.811 39.128 23.6805 38.3726C22.5499 37.6172 21.6687 36.5434 21.1483 35.2872C20.628 34.031 20.4918 32.6486 20.7571 31.315C21.0224 29.9814 21.6772 28.7564 22.6386 27.7949C23.6001 26.8334 24.8251 26.1786 26.1588 25.9134C27.4924 25.6481 28.8747 25.7842 30.1309 26.3046C31.3872 26.8249 32.4609 27.7061 33.2164 28.8367C33.9718 29.9673 34.375 31.2965 34.375 32.6562C34.3727 34.4789 33.6477 36.2263 32.3588 37.5151C31.07 38.8039 29.3227 39.529 27.5 39.5312Z" fill="#333333"/>
<path d="M46.4062 5.15625H8.59375C7.68207 5.15625 6.80773 5.51841 6.16307 6.16307C5.51841 6.80773 5.15625 7.68207 5.15625 8.59375V46.4062C5.15625 47.3179 5.51841 48.1923 6.16307 48.8369C6.80773 49.4816 7.68207 49.8438 8.59375 49.8438H46.4062C47.3179 49.8438 48.1923 49.4816 48.8369 48.8369C49.4816 48.1923 49.8438 47.3179 49.8438 46.4062V8.59375C49.8438 7.68207 49.4816 6.80773 48.8369 6.16307C48.1923 5.51841 47.3179 5.15625 46.4062 5.15625ZM8.59375 8.59375H46.4062V15.4688H8.59375V8.59375ZM8.59375 46.4062V18.9062H46.4062V46.4062H8.59375Z" fill="#333333"/>
</svg>
