<svg width="52" height="48" viewBox="0 0 52 48" fill="none" xmlns="http://www.w3.org/2000/svg">
<path d="M23.3531 1.00645C23.9977 0.362022 24.8719 0 25.7834 0C26.6949 0 27.5691 0.362022 28.2137 1.00645L36.0959 8.88864V4.44395C36.0959 3.98811 36.277 3.55094 36.5993 3.22861C36.9217 2.90629 37.3588 2.7252 37.8147 2.7252H41.2522C41.708 2.7252 42.1452 2.90629 42.4675 3.22861C42.7898 3.55094 42.9709 3.98811 42.9709 4.44395V15.7636L51.0628 23.8521C51.2226 24.0119 51.3494 24.2016 51.4358 24.4104C51.5223 24.6192 51.5668 24.843 51.5668 25.069C51.5668 25.295 51.5223 25.5187 51.4358 25.7275C51.3494 25.9363 51.2226 26.126 51.0628 26.2858C50.903 26.4456 50.7133 26.5724 50.5045 26.6589C50.2957 26.7454 50.0719 26.7899 49.8459 26.7899C49.6199 26.7899 49.3961 26.7454 49.1874 26.6589C48.9786 26.5724 48.7889 26.4456 48.629 26.2858L25.7834 3.43677L8.59592 20.6243V42.2565C8.59592 42.7123 8.777 43.1495 9.09933 43.4718C9.42166 43.7941 9.85883 43.9752 10.3147 43.9752H24.0647C24.5205 43.9752 24.9577 44.1563 25.28 44.4786C25.6023 44.8009 25.7834 45.2381 25.7834 45.694C25.7834 46.1498 25.6023 46.587 25.28 46.9093C24.9577 47.2316 24.5205 47.4127 24.0647 47.4127H10.3147C8.94715 47.4127 7.63564 46.8695 6.66865 45.9025C5.70167 44.9355 5.15842 43.624 5.15842 42.2565V24.0618L2.9378 26.2858C2.77799 26.4456 2.58828 26.5724 2.37949 26.6589C2.1707 26.7454 1.94692 26.7899 1.72092 26.7899C1.49493 26.7899 1.27115 26.7454 1.06235 26.6589C0.853561 26.5724 0.663849 26.4456 0.504046 26.2858C0.344244 26.126 0.217482 25.9363 0.130997 25.7275C0.044513 25.5187 0 25.295 0 25.069C0 24.843 0.044513 24.6192 0.130997 24.4104C0.217482 24.2016 0.344244 24.0119 0.504046 23.8521L23.3531 1.00645Z" fill="#333333"/>
<path d="M37.75 39.75C39.6485 39.75 41.1875 38.211 41.1875 36.3125C41.1875 34.414 39.6485 32.875 37.75 32.875C35.8515 32.875 34.3125 34.414 34.3125 36.3125C34.3125 38.211 35.8515 39.75 37.75 39.75Z" fill="#333333"/>
<path d="M51.1167 35.417C50.0547 32.7115 48.2222 30.3771 45.8461 28.7032C43.4701 27.0292 40.6551 26.0893 37.75 26C34.8449 26.0893 32.0299 27.0292 29.6539 28.7032C27.2778 30.3771 25.4453 32.7115 24.3833 35.417L24 36.3125L24.3833 37.2097C25.4455 39.9149 27.2782 42.2489 29.6542 43.9225C32.0302 45.5962 34.8451 46.5358 37.75 46.625C40.6549 46.5358 43.4698 45.5962 45.8458 43.9225C48.2218 42.2489 50.0545 39.9149 51.1167 37.2097L51.5 36.3125L51.1167 35.417ZM37.75 43.1875C36.3903 43.1875 35.061 42.7843 33.9305 42.0289C32.7999 41.2734 31.9187 40.1997 31.3983 38.9434C30.878 37.6872 30.7418 36.3049 31.0071 34.9713C31.2724 33.6376 31.9272 32.4126 32.8886 31.4511C33.8501 30.4897 35.0751 29.8349 36.4088 29.5696C37.7424 29.3043 39.1247 29.4405 40.3809 29.9608C41.6372 30.4812 42.7109 31.3624 43.4664 32.493C44.2218 33.6235 44.625 34.9528 44.625 36.3125C44.6227 38.1352 43.8977 39.8825 42.6088 41.1713C41.32 42.4602 39.5727 43.1852 37.75 43.1875Z" fill="#333333"/>
</svg>
