<svg width="473" height="510" viewBox="0 0 473 510" fill="none" xmlns="http://www.w3.org/2000/svg">
<g filter="url(#filter0_i_51_38)">
<path d="M168.761 280.969C179.925 275.159 188.816 265.77 194.01 254.306C199.203 242.842 200.398 229.967 197.404 217.743C194.41 205.519 187.399 194.654 177.495 186.888C167.591 179.122 155.367 174.906 142.782 174.914C130.145 174.913 117.876 179.169 107.954 186.994C98.0321 194.82 91.035 205.759 88.0913 218.048C87.2749 221.353 85.5784 224.374 83.1821 226.791C80.7859 229.208 77.7794 230.931 74.4823 231.776C66.3916 233.784 58.8538 237.58 52.4228 242.884C45.9919 248.189 40.8312 254.867 37.3202 262.427C33.8092 269.988 32.0371 278.24 32.1341 286.575C32.2311 294.911 34.1947 303.119 37.8807 310.596C39.2155 313.392 39.6258 316.54 39.0523 319.585C38.4787 322.629 36.9511 325.412 34.6906 327.531C26.6846 334.864 21.0802 344.445 18.6115 355.017C16.1427 365.59 16.9248 376.661 20.8553 386.782C24.7858 396.903 31.6813 405.6 40.6387 411.735C49.5961 417.87 60.1977 421.157 71.0546 421.164H168.744L168.761 280.969Z" fill="url(#paint0_linear_51_38)"/>
<path d="M168.761 280.969C179.925 275.159 188.816 265.77 194.01 254.306C199.203 242.842 200.398 229.967 197.404 217.743C194.41 205.519 187.399 194.654 177.495 186.888C167.591 179.122 155.367 174.906 142.782 174.914C130.145 174.913 117.876 179.169 107.954 186.994C98.0321 194.82 91.035 205.759 88.0913 218.048C87.2749 221.353 85.5784 224.374 83.1821 226.791C80.7859 229.208 77.7794 230.931 74.4823 231.776C66.3916 233.784 58.8538 237.58 52.4228 242.884C45.9919 248.189 40.8312 254.867 37.3202 262.427C33.8092 269.988 32.0371 278.24 32.1341 286.575C32.2311 294.911 34.1947 303.119 37.8807 310.596C39.2155 313.392 39.6258 316.54 39.0523 319.585C38.4787 322.629 36.9511 325.412 34.6906 327.531C26.6846 334.864 21.0802 344.445 18.6115 355.017C16.1427 365.59 16.9248 376.661 20.8553 386.782C24.7858 396.903 31.6813 405.6 40.6387 411.735C49.5961 417.87 60.1977 421.157 71.0546 421.164H168.744L168.761 280.969Z" fill="url(#paint1_linear_51_38)"/>
<path d="M168.761 280.969C179.925 275.159 188.816 265.77 194.01 254.306C199.203 242.842 200.398 229.967 197.404 217.743C194.41 205.519 187.399 194.654 177.495 186.888C167.591 179.122 155.367 174.906 142.782 174.914C130.145 174.913 117.876 179.169 107.954 186.994C98.0321 194.82 91.035 205.759 88.0913 218.048C87.2749 221.353 85.5784 224.374 83.1821 226.791C80.7859 229.208 77.7794 230.931 74.4823 231.776C66.3916 233.784 58.8538 237.58 52.4228 242.884C45.9919 248.189 40.8312 254.867 37.3202 262.427C33.8092 269.988 32.0371 278.24 32.1341 286.575C32.2311 294.911 34.1947 303.119 37.8807 310.596C39.2155 313.392 39.6258 316.54 39.0523 319.585C38.4787 322.629 36.9511 325.412 34.6906 327.531C26.6846 334.864 21.0802 344.445 18.6115 355.017C16.1427 365.59 16.9248 376.661 20.8553 386.782C24.7858 396.903 31.6813 405.6 40.6387 411.735C49.5961 417.87 60.1977 421.157 71.0546 421.164H168.744L168.761 280.969Z" fill="url(#paint2_radial_51_38)"/>
</g>
<g filter="url(#filter1_f_51_38)">
<path d="M85.194 410.459C102.916 401.354 108.223 376.342 97.0487 354.595C85.8743 332.847 62.4496 322.599 44.7281 331.704C27.0066 340.81 21.699 365.821 32.8734 387.569C44.0478 409.317 67.4725 419.565 85.194 410.459Z" fill="url(#paint3_radial_51_38)"/>
</g>
<g filter="url(#filter2_f_51_38)">
<path d="M46.6787 305.813C59.264 321.089 84.7938 320.846 103.701 305.269C122.608 289.692 127.734 264.681 115.148 249.405C102.563 234.129 77.0333 234.372 58.126 249.949C39.2186 265.525 34.0935 290.536 46.6787 305.813Z" fill="url(#paint4_radial_51_38)"/>
</g>
<path d="M135.366 129.505C135.366 127.93 135.992 126.42 137.106 125.306C138.22 124.192 139.73 123.566 141.305 123.566H180.062C181.637 123.566 183.148 124.192 184.261 125.306C185.375 126.42 186.001 127.93 186.001 129.505V270.041H135.349L135.366 129.505Z" fill="url(#paint5_radial_51_38)"/>
<path d="M135.366 129.505C135.366 127.93 135.992 126.42 137.106 125.306C138.22 124.192 139.73 123.566 141.305 123.566H180.062C181.637 123.566 183.148 124.192 184.261 125.306C185.375 126.42 186.001 127.93 186.001 129.505V270.041H135.349L135.366 129.505Z" fill="url(#paint6_linear_51_38)"/>
<path d="M135.366 129.505C135.366 127.93 135.992 126.42 137.106 125.306C138.22 124.192 139.73 123.566 141.305 123.566H180.062C181.637 123.566 183.148 124.192 184.261 125.306C185.375 126.42 186.001 127.93 186.001 129.505V270.041H135.349L135.366 129.505Z" fill="url(#paint7_linear_51_38)"/>
<path d="M135.366 129.505C135.366 127.93 135.992 126.42 137.106 125.306C138.22 124.192 139.73 123.566 141.305 123.566H180.062C181.637 123.566 183.148 124.192 184.261 125.306C185.375 126.42 186.001 127.93 186.001 129.505V270.041H135.349L135.366 129.505Z" fill="url(#paint8_linear_51_38)"/>
<path d="M135.366 129.505C135.366 127.93 135.992 126.42 137.106 125.306C138.22 124.192 139.73 123.566 141.305 123.566H180.062C181.637 123.566 183.148 124.192 184.261 125.306C185.375 126.42 186.001 127.93 186.001 129.505V270.041H135.349L135.366 129.505Z" fill="url(#paint9_radial_51_38)"/>
<path d="M421.968 475.685H114.885V284.108L268.418 130.88L421.934 284.108L421.968 475.685Z" fill="url(#paint10_linear_51_38)"/>
<path d="M421.968 475.685H114.885V284.108L268.418 130.88L421.934 284.108L421.968 475.685Z" fill="url(#paint11_linear_51_38)"/>
<path d="M421.968 475.685H114.885V284.108L268.418 130.88L421.934 284.108L421.968 475.685Z" fill="url(#paint12_radial_51_38)"/>
<path d="M421.968 475.685H114.885V284.108L268.418 130.88L421.934 284.108L421.968 475.685Z" fill="url(#paint13_linear_51_38)"/>
<path d="M421.968 475.685H114.885V284.108L268.418 130.88L421.934 284.108L421.968 475.685Z" fill="url(#paint14_radial_51_38)"/>
<path d="M421.968 475.685H114.885V284.108L268.418 130.88L421.934 284.108L421.968 475.685Z" fill="url(#paint15_linear_51_38)"/>
<path d="M421.968 475.685H114.885V284.108L268.418 130.88L421.934 284.108L421.968 475.685Z" fill="url(#paint16_linear_51_38)"/>
<g filter="url(#filter3_f_51_38)">
<path d="M253.011 475.685H154.066V334.895C154.066 324.171 161.651 315.364 170.882 315.364H236.195C245.426 315.364 252.994 324.171 252.994 334.895L253.011 475.685Z" fill="url(#paint17_linear_51_38)"/>
</g>
<g filter="url(#filter4_f_51_38)">
<path d="M139.608 465.521H277.055V481.641H139.608V465.521Z" fill="#68552B"/>
</g>
<g filter="url(#filter5_i_51_38)">
<path d="M375.338 393.403H315.642C314.073 393.406 312.519 393.098 311.068 392.499C309.618 391.899 308.3 391.019 307.19 389.91C306.081 388.8 305.201 387.482 304.601 386.032C304.002 384.581 303.694 383.027 303.696 381.457V321.761C303.696 315.059 309.143 309.832 315.642 309.832H375.321C382.024 309.832 387.267 315.262 387.267 321.761V381.457C387.286 383.031 386.989 384.593 386.395 386.05C385.801 387.508 384.922 388.832 383.809 389.945C382.696 391.058 381.372 391.937 379.914 392.531C378.457 393.125 376.912 393.422 375.338 393.403Z" fill="url(#paint18_linear_51_38)"/>
<path d="M375.338 393.403H315.642C314.073 393.406 312.519 393.098 311.068 392.499C309.618 391.899 308.3 391.019 307.19 389.91C306.081 388.8 305.201 387.482 304.601 386.032C304.002 384.581 303.694 383.027 303.696 381.457V321.761C303.696 315.059 309.143 309.832 315.642 309.832H375.321C382.024 309.832 387.267 315.262 387.267 321.761V381.457C387.286 383.031 386.989 384.593 386.395 386.05C385.801 387.508 384.922 388.832 383.809 389.945C382.696 391.058 381.372 391.937 379.914 392.531C378.457 393.125 376.912 393.422 375.338 393.403Z" fill="url(#paint19_linear_51_38)"/>
</g>
<path d="M375.338 393.403H315.642C314.073 393.406 312.519 393.098 311.068 392.499C309.618 391.899 308.3 391.019 307.19 389.91C306.081 388.8 305.201 387.482 304.601 386.032C304.002 384.581 303.694 383.027 303.696 381.457V321.761C303.696 315.059 309.143 309.832 315.642 309.832H375.321C382.024 309.832 387.267 315.262 387.267 321.761V381.457C387.286 383.031 386.989 384.593 386.395 386.05C385.801 387.508 384.922 388.832 383.809 389.945C382.696 391.058 381.372 391.937 379.914 392.531C378.457 393.125 376.912 393.422 375.338 393.403Z" fill="url(#paint20_linear_51_38)"/>
<path d="M375.338 393.403H315.642C314.073 393.406 312.519 393.098 311.068 392.499C309.618 391.899 308.3 391.019 307.19 389.91C306.081 388.8 305.201 387.482 304.601 386.032C304.002 384.581 303.694 383.027 303.696 381.457V321.761C303.696 315.059 309.143 309.832 315.642 309.832H375.321C382.024 309.832 387.267 315.262 387.267 321.761V381.457C387.286 383.031 386.989 384.593 386.395 386.05C385.801 387.508 384.922 388.832 383.809 389.945C382.696 391.058 381.372 391.937 379.914 392.531C378.457 393.125 376.912 393.422 375.338 393.403Z" fill="url(#paint21_linear_51_38)"/>
<g filter="url(#filter6_ii_51_38)">
<path d="M269.979 459.548H159.632V326.088C159.632 315.907 168.082 307.576 178.382 307.576H251.212C261.512 307.576 269.979 315.924 269.979 326.072V459.548Z" fill="url(#paint22_linear_51_38)"/>
</g>
<g filter="url(#filter7_f_51_38)">
<path d="M242.337 394.167C244.446 394.167 246.468 393.329 247.959 391.839C249.45 390.348 250.287 388.326 250.287 386.217C250.287 384.109 249.45 382.087 247.959 380.596C246.468 379.105 244.446 378.267 242.337 378.267C240.229 378.267 238.207 379.105 236.716 380.596C235.225 382.087 234.387 384.109 234.387 386.217C234.387 388.326 235.225 390.348 236.716 391.839C238.207 393.329 240.229 394.167 242.337 394.167Z" fill="#62393D"/>
</g>
<g filter="url(#filter8_ii_51_38)">
<path d="M244.407 392.962C246.536 392.962 248.578 392.117 250.083 390.612C251.588 389.106 252.434 387.065 252.434 384.936C252.434 382.807 251.588 380.766 250.083 379.261C248.578 377.756 246.536 376.91 244.407 376.91C242.279 376.91 240.237 377.756 238.732 379.261C237.227 380.766 236.381 382.807 236.381 384.936C236.381 387.065 237.227 389.106 238.732 390.612C240.237 392.117 242.279 392.962 244.407 392.962Z" fill="#895D56"/>
</g>
<path d="M462.1 285.957L280.534 107.073C277.29 103.84 272.896 102.025 268.316 102.025C263.736 102.025 259.343 103.84 256.099 107.073C256.099 107.073 255.929 107.073 255.929 107.259L73.9394 286.331C72.336 287.896 71.0618 289.765 70.1918 291.83C69.3218 293.895 68.8737 296.113 68.8737 298.353C68.8737 300.594 69.3218 302.811 70.1918 304.876C71.0618 306.941 72.336 308.811 73.9394 310.375C77.205 313.568 81.5902 315.355 86.1569 315.355C90.7235 315.355 95.1088 313.568 98.3744 310.375L265.228 145.982C266.022 145.2 267.092 144.761 268.206 144.761C269.321 144.761 270.39 145.2 271.184 145.982L437.478 309.798C440.722 313.031 445.115 314.847 449.695 314.847C454.275 314.847 458.669 313.031 461.913 309.798C468.633 303.062 468.836 292.49 462.1 285.957Z" fill="url(#paint23_linear_51_38)"/>
<path d="M145.429 472.274C145.429 468.899 146.77 465.662 149.156 463.275C151.543 460.889 154.78 459.548 158.155 459.548H270.149C273.524 459.548 276.761 460.889 279.148 463.275C281.535 465.662 282.876 468.899 282.876 472.274V475.668H145.429V472.274Z" fill="url(#paint24_linear_51_38)"/>
<path d="M145.429 472.274C145.429 468.899 146.77 465.662 149.156 463.275C151.543 460.889 154.78 459.548 158.155 459.548H270.149C273.524 459.548 276.761 460.889 279.148 463.275C281.535 465.662 282.876 468.899 282.876 472.274V475.668H145.429V472.274Z" fill="url(#paint25_linear_51_38)"/>
<path d="M145.429 472.274C145.429 468.899 146.77 465.662 149.156 463.275C151.543 460.889 154.78 459.548 158.155 459.548H270.149C273.524 459.548 276.761 460.889 279.148 463.275C281.535 465.662 282.876 468.899 282.876 472.274V475.668H145.429V472.274Z" fill="url(#paint26_linear_51_38)"/>
<g filter="url(#filter9_i_51_38)">
<path d="M0.227112 509.877C0.227112 490.991 15.5329 475.685 34.4191 475.685H438.598C457.484 475.685 472.79 490.991 472.79 509.877H0.227112Z" fill="#3FD47B"/>
</g>
<path d="M0.227112 509.877C0.227112 490.991 15.5329 475.685 34.4191 475.685H438.598C457.484 475.685 472.79 490.991 472.79 509.877H0.227112Z" fill="url(#paint27_linear_51_38)"/>
<path d="M0.227112 509.877C0.227112 490.991 15.5329 475.685 34.4191 475.685H438.598C457.484 475.685 472.79 490.991 472.79 509.877H0.227112Z" fill="url(#paint28_radial_51_38)"/>
<path d="M0.227112 509.877C0.227112 490.991 15.5329 475.685 34.4191 475.685H438.598C457.484 475.685 472.79 490.991 472.79 509.877H0.227112Z" fill="url(#paint29_radial_51_38)"/>
<g filter="url(#filter10_i_51_38)">
<path d="M404.44 509.877C414.517 506.26 423.237 499.63 429.417 490.888C435.597 482.145 438.939 471.713 438.988 461.007C438.988 432.211 415.283 408.879 386.063 408.879C377.603 408.854 369.259 410.851 361.727 414.703C354.194 418.555 347.691 424.15 342.758 431.023C336.904 439.219 328.437 445.888 319.986 451.352C314.999 454.539 310.893 458.929 308.047 464.118C305.2 469.307 303.704 475.129 303.696 481.047C303.696 492.925 309.601 503.446 318.68 509.894L404.44 509.877Z" fill="#2EAD69"/>
<path d="M404.44 509.877C414.517 506.26 423.237 499.63 429.417 490.888C435.597 482.145 438.939 471.713 438.988 461.007C438.988 432.211 415.283 408.879 386.063 408.879C377.603 408.854 369.259 410.851 361.727 414.703C354.194 418.555 347.691 424.15 342.758 431.023C336.904 439.219 328.437 445.888 319.986 451.352C314.999 454.539 310.893 458.929 308.047 464.118C305.2 469.307 303.704 475.129 303.696 481.047C303.696 492.925 309.601 503.446 318.68 509.894L404.44 509.877Z" fill="url(#paint30_linear_51_38)"/>
<path d="M404.44 509.877C414.517 506.26 423.237 499.63 429.417 490.888C435.597 482.145 438.939 471.713 438.988 461.007C438.988 432.211 415.283 408.879 386.063 408.879C377.603 408.854 369.259 410.851 361.727 414.703C354.194 418.555 347.691 424.15 342.758 431.023C336.904 439.219 328.437 445.888 319.986 451.352C314.999 454.539 310.893 458.929 308.047 464.118C305.2 469.307 303.704 475.129 303.696 481.047C303.696 492.925 309.601 503.446 318.68 509.894L404.44 509.877Z" fill="url(#paint31_radial_51_38)"/>
<path d="M404.44 509.877C414.517 506.26 423.237 499.63 429.417 490.888C435.597 482.145 438.939 471.713 438.988 461.007C438.988 432.211 415.283 408.879 386.063 408.879C377.603 408.854 369.259 410.851 361.727 414.703C354.194 418.555 347.691 424.15 342.758 431.023C336.904 439.219 328.437 445.888 319.986 451.352C314.999 454.539 310.893 458.929 308.047 464.118C305.2 469.307 303.704 475.129 303.696 481.047C303.696 492.925 309.601 503.446 318.68 509.894L404.44 509.877Z" fill="url(#paint32_radial_51_38)"/>
</g>
<path d="M404.44 509.877C414.517 506.26 423.237 499.63 429.417 490.888C435.597 482.145 438.939 471.713 438.988 461.007C438.988 432.211 415.283 408.879 386.063 408.879C377.603 408.854 369.259 410.851 361.727 414.703C354.194 418.555 347.691 424.15 342.758 431.023C336.904 439.219 328.437 445.888 319.986 451.352C314.999 454.539 310.893 458.929 308.047 464.118C305.2 469.307 303.704 475.129 303.696 481.047C303.696 492.925 309.601 503.446 318.68 509.894L404.44 509.877Z" fill="url(#paint33_radial_51_38)"/>
<g filter="url(#filter11_f_51_38)">
<path d="M271.15 115.642L453.225 294.934" stroke="url(#paint34_linear_51_38)" stroke-width="0.75" stroke-linecap="round"/>
</g>
<g filter="url(#filter12_f_51_38)">
<path d="M271.15 115.642L89.0585 294.934" stroke="url(#paint35_linear_51_38)" stroke-opacity="0.5" stroke-width="0.75" stroke-linecap="round"/>
</g>
<g filter="url(#filter13_f_51_38)">
<path d="M359.065 496.573C350.813 485.95 345.049 473.61 342.198 460.464C342.093 459.929 341.874 459.424 341.556 458.981C341.238 458.539 340.828 458.17 340.355 457.899C339.882 457.629 339.356 457.463 338.813 457.414C338.271 457.365 337.724 457.433 337.21 457.613L334.189 458.75C329.416 460.544 325.425 463.958 322.913 468.395C320.401 472.833 319.528 478.011 320.445 483.027C321.363 488.043 324.013 492.577 327.933 495.837C331.853 499.098 336.794 500.878 341.893 500.867H357.097C359.252 500.867 360.406 498.253 359.065 496.573Z" fill="#31B570"/>
</g>
<defs>
<filter id="filter0_i_51_38" x="17.1997" y="174.914" width="182.318" height="246.75" filterUnits="userSpaceOnUse" color-interpolation-filters="sRGB">
<feFlood flood-opacity="0" result="BackgroundImageFix"/>
<feBlend mode="normal" in="SourceGraphic" in2="BackgroundImageFix" result="shape"/>
<feColorMatrix in="SourceAlpha" type="matrix" values="0 0 0 0 0 0 0 0 0 0 0 0 0 0 0 0 0 0 127 0" result="hardAlpha"/>
<feOffset dx="0.5" dy="0.5"/>
<feGaussianBlur stdDeviation="1.25"/>
<feComposite in2="hardAlpha" operator="arithmetic" k2="-1" k3="1"/>
<feColorMatrix type="matrix" values="0 0 0 0 0.301961 0 0 0 0 0.592157 0 0 0 0 0.392157 0 0 0 1 0"/>
<feBlend mode="normal" in2="shape" result="effect1_innerShadow_51_38"/>
</filter>
<filter id="filter1_f_51_38" x="24.5221" y="325.881" width="80.8779" height="90.4019" filterUnits="userSpaceOnUse" color-interpolation-filters="sRGB">
<feFlood flood-opacity="0" result="BackgroundImageFix"/>
<feBlend mode="normal" in="SourceGraphic" in2="BackgroundImageFix" result="shape"/>
<feGaussianBlur stdDeviation="1.25" result="effect1_foregroundBlur_51_38"/>
</filter>
<filter id="filter2_f_51_38" x="37.2838" y="235.605" width="87.2595" height="84.0077" filterUnits="userSpaceOnUse" color-interpolation-filters="sRGB">
<feFlood flood-opacity="0" result="BackgroundImageFix"/>
<feBlend mode="normal" in="SourceGraphic" in2="BackgroundImageFix" result="shape"/>
<feGaussianBlur stdDeviation="1.25" result="effect1_foregroundBlur_51_38"/>
</filter>
<filter id="filter3_f_51_38" x="152.816" y="314.114" width="101.445" height="162.821" filterUnits="userSpaceOnUse" color-interpolation-filters="sRGB">
<feFlood flood-opacity="0" result="BackgroundImageFix"/>
<feBlend mode="normal" in="SourceGraphic" in2="BackgroundImageFix" result="shape"/>
<feGaussianBlur stdDeviation="0.625" result="effect1_foregroundBlur_51_38"/>
</filter>
<filter id="filter4_f_51_38" x="138.358" y="464.271" width="139.947" height="18.6204" filterUnits="userSpaceOnUse" color-interpolation-filters="sRGB">
<feFlood flood-opacity="0" result="BackgroundImageFix"/>
<feBlend mode="normal" in="SourceGraphic" in2="BackgroundImageFix" result="shape"/>
<feGaussianBlur stdDeviation="0.625" result="effect1_foregroundBlur_51_38"/>
</filter>
<filter id="filter5_i_51_38" x="302.446" y="309.832" width="84.8219" height="84.8219" filterUnits="userSpaceOnUse" color-interpolation-filters="sRGB">
<feFlood flood-opacity="0" result="BackgroundImageFix"/>
<feBlend mode="normal" in="SourceGraphic" in2="BackgroundImageFix" result="shape"/>
<feColorMatrix in="SourceAlpha" type="matrix" values="0 0 0 0 0 0 0 0 0 0 0 0 0 0 0 0 0 0 127 0" result="hardAlpha"/>
<feOffset dx="-1.25" dy="1.25"/>
<feGaussianBlur stdDeviation="0.625"/>
<feComposite in2="hardAlpha" operator="arithmetic" k2="-1" k3="1"/>
<feColorMatrix type="matrix" values="0 0 0 0 0.0470588 0 0 0 0 0.47451 0 0 0 0 0.792157 0 0 0 1 0"/>
<feBlend mode="normal" in2="shape" result="effect1_innerShadow_51_38"/>
</filter>
<filter id="filter6_ii_51_38" x="159.132" y="307.576" width="111.473" height="151.972" filterUnits="userSpaceOnUse" color-interpolation-filters="sRGB">
<feFlood flood-opacity="0" result="BackgroundImageFix"/>
<feBlend mode="normal" in="SourceGraphic" in2="BackgroundImageFix" result="shape"/>
<feColorMatrix in="SourceAlpha" type="matrix" values="0 0 0 0 0 0 0 0 0 0 0 0 0 0 0 0 0 0 127 0" result="hardAlpha"/>
<feOffset dx="0.625"/>
<feGaussianBlur stdDeviation="0.625"/>
<feComposite in2="hardAlpha" operator="arithmetic" k2="-1" k3="1"/>
<feColorMatrix type="matrix" values="0 0 0 0 0.254902 0 0 0 0 0.188235 0 0 0 0 0.141176 0 0 0 1 0"/>
<feBlend mode="normal" in2="shape" result="effect1_innerShadow_51_38"/>
<feColorMatrix in="SourceAlpha" type="matrix" values="0 0 0 0 0 0 0 0 0 0 0 0 0 0 0 0 0 0 127 0" result="hardAlpha"/>
<feOffset dx="-0.5"/>
<feGaussianBlur stdDeviation="0.375"/>
<feComposite in2="hardAlpha" operator="arithmetic" k2="-1" k3="1"/>
<feColorMatrix type="matrix" values="0 0 0 0 0.694118 0 0 0 0 0.470588 0 0 0 0 0.407843 0 0 0 1 0"/>
<feBlend mode="normal" in2="effect1_innerShadow_51_38" result="effect2_innerShadow_51_38"/>
</filter>
<filter id="filter7_f_51_38" x="234.012" y="377.892" width="16.6498" height="16.6498" filterUnits="userSpaceOnUse" color-interpolation-filters="sRGB">
<feFlood flood-opacity="0" result="BackgroundImageFix"/>
<feBlend mode="normal" in="SourceGraphic" in2="BackgroundImageFix" result="shape"/>
<feGaussianBlur stdDeviation="0.1875" result="effect1_foregroundBlur_51_38"/>
</filter>
<filter id="filter8_ii_51_38" x="236.131" y="376.91" width="16.5524" height="16.0525" filterUnits="userSpaceOnUse" color-interpolation-filters="sRGB">
<feFlood flood-opacity="0" result="BackgroundImageFix"/>
<feBlend mode="normal" in="SourceGraphic" in2="BackgroundImageFix" result="shape"/>
<feColorMatrix in="SourceAlpha" type="matrix" values="0 0 0 0 0 0 0 0 0 0 0 0 0 0 0 0 0 0 127 0" result="hardAlpha"/>
<feOffset dx="-0.25"/>
<feGaussianBlur stdDeviation="0.25"/>
<feComposite in2="hardAlpha" operator="arithmetic" k2="-1" k3="1"/>
<feColorMatrix type="matrix" values="0 0 0 0 0.694118 0 0 0 0 0.482353 0 0 0 0 0.419608 0 0 0 1 0"/>
<feBlend mode="normal" in2="shape" result="effect1_innerShadow_51_38"/>
<feColorMatrix in="SourceAlpha" type="matrix" values="0 0 0 0 0 0 0 0 0 0 0 0 0 0 0 0 0 0 127 0" result="hardAlpha"/>
<feOffset dx="0.25"/>
<feGaussianBlur stdDeviation="0.25"/>
<feComposite in2="hardAlpha" operator="arithmetic" k2="-1" k3="1"/>
<feColorMatrix type="matrix" values="0 0 0 0 0.290196 0 0 0 0 0.184314 0 0 0 0 0.164706 0 0 0 1 0"/>
<feBlend mode="normal" in2="effect1_innerShadow_51_38" result="effect2_innerShadow_51_38"/>
</filter>
<filter id="filter9_i_51_38" x="0.227112" y="475.685" width="473.813" height="34.192" filterUnits="userSpaceOnUse" color-interpolation-filters="sRGB">
<feFlood flood-opacity="0" result="BackgroundImageFix"/>
<feBlend mode="normal" in="SourceGraphic" in2="BackgroundImageFix" result="shape"/>
<feColorMatrix in="SourceAlpha" type="matrix" values="0 0 0 0 0 0 0 0 0 0 0 0 0 0 0 0 0 0 127 0" result="hardAlpha"/>
<feOffset dx="1.25"/>
<feGaussianBlur stdDeviation="1.25"/>
<feComposite in2="hardAlpha" operator="arithmetic" k2="-1" k3="1"/>
<feColorMatrix type="matrix" values="0 0 0 0 0.25098 0 0 0 0 0.545098 0 0 0 0 0.352941 0 0 0 1 0"/>
<feBlend mode="normal" in2="shape" result="effect1_innerShadow_51_38"/>
</filter>
<filter id="filter10_i_51_38" x="303.696" y="408.879" width="135.792" height="101.515" filterUnits="userSpaceOnUse" color-interpolation-filters="sRGB">
<feFlood flood-opacity="0" result="BackgroundImageFix"/>
<feBlend mode="normal" in="SourceGraphic" in2="BackgroundImageFix" result="shape"/>
<feColorMatrix in="SourceAlpha" type="matrix" values="0 0 0 0 0 0 0 0 0 0 0 0 0 0 0 0 0 0 127 0" result="hardAlpha"/>
<feOffset dx="0.5" dy="0.5"/>
<feGaussianBlur stdDeviation="0.75"/>
<feComposite in2="hardAlpha" operator="arithmetic" k2="-1" k3="1"/>
<feColorMatrix type="matrix" values="0 0 0 0 0.309804 0 0 0 0 0.564706 0 0 0 0 0.329412 0 0 0 1 0"/>
<feBlend mode="normal" in2="shape" result="effect1_innerShadow_51_38"/>
</filter>
<filter id="filter11_f_51_38" x="269.275" y="113.767" width="185.825" height="183.042" filterUnits="userSpaceOnUse" color-interpolation-filters="sRGB">
<feFlood flood-opacity="0" result="BackgroundImageFix"/>
<feBlend mode="normal" in="SourceGraphic" in2="BackgroundImageFix" result="shape"/>
<feGaussianBlur stdDeviation="0.75" result="effect1_foregroundBlur_51_38"/>
</filter>
<filter id="filter12_f_51_38" x="87.1835" y="113.767" width="185.842" height="183.042" filterUnits="userSpaceOnUse" color-interpolation-filters="sRGB">
<feFlood flood-opacity="0" result="BackgroundImageFix"/>
<feBlend mode="normal" in="SourceGraphic" in2="BackgroundImageFix" result="shape"/>
<feGaussianBlur stdDeviation="0.75" result="effect1_foregroundBlur_51_38"/>
</filter>
<filter id="filter13_f_51_38" x="318.215" y="455.523" width="43.2986" height="47.2181" filterUnits="userSpaceOnUse" color-interpolation-filters="sRGB">
<feFlood flood-opacity="0" result="BackgroundImageFix"/>
<feBlend mode="normal" in="SourceGraphic" in2="BackgroundImageFix" result="shape"/>
<feGaussianBlur stdDeviation="0.9375" result="effect1_foregroundBlur_51_38"/>
</filter>
<linearGradient id="paint0_linear_51_38" x1="108.08" y1="174.897" x2="108.08" y2="421.181" gradientUnits="userSpaceOnUse">
<stop stop-color="#29884D"/>
<stop offset="1" stop-color="#227341"/>
</linearGradient>
<linearGradient id="paint1_linear_51_38" x1="70.9189" y1="423.828" x2="70.9189" y2="410.83" gradientUnits="userSpaceOnUse">
<stop stop-color="#4E7978"/>
<stop offset="1" stop-color="#4E7978" stop-opacity="0"/>
</linearGradient>
<radialGradient id="paint2_radial_51_38" cx="0" cy="0" r="1" gradientUnits="userSpaceOnUse" gradientTransform="translate(138.149 162.391) rotate(90) scale(47.7979 44.5496)">
<stop offset="0.097" stop-color="#4DB56F"/>
<stop offset="1" stop-color="#4DB56F" stop-opacity="0"/>
</radialGradient>
<radialGradient id="paint3_radial_51_38" cx="0" cy="0" r="1" gradientUnits="userSpaceOnUse" gradientTransform="translate(54.9106 383.972) rotate(-37.7036) scale(68.7376 115.018)">
<stop stop-color="#279D5A"/>
<stop offset="1" stop-color="#279D5A" stop-opacity="0"/>
</radialGradient>
<radialGradient id="paint4_radial_51_38" cx="0" cy="0" r="1" gradientUnits="userSpaceOnUse" gradientTransform="translate(63.5288 258.535) rotate(40.6049) scale(51.8762 87.5206)">
<stop stop-color="#2EA75B"/>
<stop offset="1" stop-color="#2EA75B" stop-opacity="0"/>
</radialGradient>
<radialGradient id="paint5_radial_51_38" cx="0" cy="0" r="1" gradientUnits="userSpaceOnUse" gradientTransform="translate(179.146 131.762) rotate(90) scale(65.0441 32.2932)">
<stop stop-color="#FFD1A3"/>
<stop offset="1" stop-color="#DFA276"/>
</radialGradient>
<linearGradient id="paint6_linear_51_38" x1="131.854" y1="180.14" x2="153.048" y2="180.14" gradientUnits="userSpaceOnUse">
<stop stop-color="#8E694B"/>
<stop offset="1" stop-color="#8E694B" stop-opacity="0"/>
</linearGradient>
<linearGradient id="paint7_linear_51_38" x1="173.342" y1="196.804" x2="164.077" y2="185.876" gradientUnits="userSpaceOnUse">
<stop stop-color="#C77958"/>
<stop offset="1" stop-color="#C77958" stop-opacity="0"/>
</linearGradient>
<linearGradient id="paint8_linear_51_38" x1="160.667" y1="122.769" x2="160.667" y2="125.144" gradientUnits="userSpaceOnUse">
<stop stop-color="#D5AD80"/>
<stop offset="1" stop-color="#D5AD80" stop-opacity="0"/>
</linearGradient>
<radialGradient id="paint9_radial_51_38" cx="0" cy="0" r="1" gradientUnits="userSpaceOnUse" gradientTransform="translate(191.94 126.18) rotate(180) scale(35.0853 7.54176)">
<stop stop-color="#FFE9B1"/>
<stop offset="1" stop-color="#FFE9B1" stop-opacity="0"/>
</radialGradient>
<linearGradient id="paint10_linear_51_38" x1="126.067" y1="356.225" x2="413.484" y2="356.225" gradientUnits="userSpaceOnUse">
<stop stop-color="#D7905F"/>
<stop offset="1" stop-color="#E8BC97"/>
</linearGradient>
<linearGradient id="paint11_linear_51_38" x1="134.161" y1="483.694" x2="246.783" y2="321.371" gradientUnits="userSpaceOnUse">
<stop stop-color="#BA8951"/>
<stop offset="1" stop-color="#BA8951" stop-opacity="0"/>
</linearGradient>
<radialGradient id="paint12_radial_51_38" cx="0" cy="0" r="1" gradientUnits="userSpaceOnUse" gradientTransform="translate(327.327 464.549) rotate(-117.235) scale(53.9055 65.2045)">
<stop stop-color="#BEAB75"/>
<stop offset="1" stop-color="#BEAB75" stop-opacity="0"/>
</radialGradient>
<linearGradient id="paint13_linear_51_38" x1="421.951" y1="403.245" x2="412.093" y2="403.245" gradientUnits="userSpaceOnUse">
<stop stop-color="#FFE6B1"/>
<stop offset="1" stop-color="#FFE6B1" stop-opacity="0"/>
</linearGradient>
<radialGradient id="paint14_radial_51_38" cx="0" cy="0" r="1" gradientUnits="userSpaceOnUse" gradientTransform="translate(425.583 272.688) rotate(90) scale(67.2258 14.2208)">
<stop offset="0.35" stop-color="#9E413E"/>
<stop offset="1" stop-color="#9E413E" stop-opacity="0"/>
</radialGradient>
<linearGradient id="paint15_linear_51_38" x1="320.105" y1="190.203" x2="313.487" y2="196.821" gradientUnits="userSpaceOnUse">
<stop stop-color="#B55852"/>
<stop offset="1" stop-color="#B55852" stop-opacity="0"/>
</linearGradient>
<linearGradient id="paint16_linear_51_38" x1="113.018" y1="436.131" x2="123.505" y2="436.131" gradientUnits="userSpaceOnUse">
<stop stop-color="#845F3D"/>
<stop offset="1" stop-color="#845F3D" stop-opacity="0"/>
</linearGradient>
<linearGradient id="paint17_linear_51_38" x1="203.53" y1="315.364" x2="203.53" y2="475.668" gradientUnits="userSpaceOnUse">
<stop stop-color="#805139"/>
<stop offset="1" stop-color="#6D4D2F"/>
</linearGradient>
<linearGradient id="paint18_linear_51_38" x1="303.696" y1="399.716" x2="393.885" y2="309.832" gradientUnits="userSpaceOnUse">
<stop stop-color="#4CCCFF"/>
<stop offset="1" stop-color="#3A9EE6"/>
</linearGradient>
<linearGradient id="paint19_linear_51_38" x1="345.49" y1="398.647" x2="345.49" y2="382.204" gradientUnits="userSpaceOnUse">
<stop stop-color="#1E9FE4"/>
<stop offset="1" stop-color="#1E9FE4" stop-opacity="0"/>
</linearGradient>
<linearGradient id="paint20_linear_51_38" x1="303.696" y1="372.159" x2="320.478" y2="372.159" gradientUnits="userSpaceOnUse">
<stop stop-color="#48E0FF"/>
<stop offset="1" stop-color="#48E0FF" stop-opacity="0"/>
</linearGradient>
<linearGradient id="paint21_linear_51_38" x1="316.338" y1="295.205" x2="327.588" y2="328.939" gradientUnits="userSpaceOnUse">
<stop stop-color="#43B3F2"/>
<stop offset="1" stop-color="#43B3F2" stop-opacity="0"/>
</linearGradient>
<linearGradient id="paint22_linear_51_38" x1="159.632" y1="402.889" x2="269.979" y2="402.176" gradientUnits="userSpaceOnUse">
<stop stop-color="#70504D"/>
<stop offset="1" stop-color="#9B665E"/>
</linearGradient>
<linearGradient id="paint23_linear_51_38" x1="267.977" y1="102.016" x2="267.977" y2="315.364" gradientUnits="userSpaceOnUse">
<stop stop-color="#EA6D2E"/>
<stop offset="1" stop-color="#CA222B"/>
</linearGradient>
<linearGradient id="paint24_linear_51_38" x1="149.128" y1="475.685" x2="277.87" y2="475.685" gradientUnits="userSpaceOnUse">
<stop stop-color="#9FA1A3"/>
<stop offset="1" stop-color="#C4C1C7"/>
</linearGradient>
<linearGradient id="paint25_linear_51_38" x1="143.121" y1="475.685" x2="159.513" y2="475.685" gradientUnits="userSpaceOnUse">
<stop stop-color="#59675C"/>
<stop offset="1" stop-color="#59675C" stop-opacity="0"/>
</linearGradient>
<linearGradient id="paint26_linear_51_38" x1="282.876" y1="467.608" x2="267.655" y2="475.685" gradientUnits="userSpaceOnUse">
<stop stop-color="#C8CAC6"/>
<stop offset="1" stop-color="#C8CAC6" stop-opacity="0"/>
</linearGradient>
<linearGradient id="paint27_linear_51_38" x1="236.5" y1="518.955" x2="236.5" y2="492.773" gradientUnits="userSpaceOnUse">
<stop offset="0.107" stop-color="#3FD17B"/>
<stop offset="1" stop-color="#3FD17B" stop-opacity="0"/>
</linearGradient>
<radialGradient id="paint28_radial_51_38" cx="0" cy="0" r="1" gradientUnits="userSpaceOnUse" gradientTransform="translate(317.509 492.773) rotate(128.096) scale(32.6598 41.2015)">
<stop offset="0.171" stop-color="#228051"/>
<stop offset="1" stop-color="#228051" stop-opacity="0"/>
</radialGradient>
<radialGradient id="paint29_radial_51_38" cx="0" cy="0" r="1" gradientUnits="userSpaceOnUse" gradientTransform="translate(472.786 470.741) rotate(147.147) scale(56.6941 92.9643)">
<stop stop-color="#5CEE92"/>
<stop offset="1" stop-color="#5CEE92" stop-opacity="0"/>
</radialGradient>
<linearGradient id="paint30_linear_51_38" x1="355.96" y1="520.16" x2="355.96" y2="485.17" gradientUnits="userSpaceOnUse">
<stop stop-color="#3B8478"/>
<stop offset="1" stop-color="#3B8478" stop-opacity="0"/>
</linearGradient>
<radialGradient id="paint31_radial_51_38" cx="0" cy="0" r="1" gradientUnits="userSpaceOnUse" gradientTransform="translate(389.694 560.342) rotate(-110.329) scale(115.396 52.5644)">
<stop stop-color="#2C785B"/>
<stop offset="1" stop-color="#2C785B" stop-opacity="0"/>
</radialGradient>
<radialGradient id="paint32_radial_51_38" cx="0" cy="0" r="1" gradientUnits="userSpaceOnUse" gradientTransform="translate(406.968 444.31) rotate(142.112) scale(128.436 173.843)">
<stop offset="0.641" stop-color="#2C785B" stop-opacity="0"/>
<stop offset="0.966" stop-color="#2C785B"/>
</radialGradient>
<radialGradient id="paint33_radial_51_38" cx="0" cy="0" r="1" gradientUnits="userSpaceOnUse" gradientTransform="translate(433.996 433.873) rotate(148.884) scale(73.2085 69.6927)">
<stop stop-color="#60FB9A"/>
<stop offset="1" stop-color="#60FB9A" stop-opacity="0"/>
</radialGradient>
<linearGradient id="paint34_linear_51_38" x1="265.55" y1="112.859" x2="460.844" y2="313.939" gradientUnits="userSpaceOnUse">
<stop stop-color="#FF8337"/>
<stop offset="1" stop-color="#F24747"/>
</linearGradient>
<linearGradient id="paint35_linear_51_38" x1="276.733" y1="112.859" x2="81.4396" y2="313.939" gradientUnits="userSpaceOnUse">
<stop stop-color="#FF8337"/>
<stop offset="1" stop-color="#F24747"/>
</linearGradient>
</defs>
</svg>
