<svg width="181" height="180" viewBox="0 0 181 180" fill="none" xmlns="http://www.w3.org/2000/svg">
<g clip-path="url(#clip0_43_2560)">
<path d="M90.6875 142.5C83.6875 142.5 77 141.188 70.625 138.563C64.25 135.938 58.5625 132.125 53.5625 127.125C48.5625 122.125 44.75 116.438 42.125 110.063C39.5 103.688 38.1875 97 38.1875 90C38.1875 83.625 39.25 77.5325 41.375 71.7225C43.5 65.9125 46.625 60.63 50.75 55.875C52.375 54.125 54.375 53.5325 56.75 54.0975C59.125 54.6625 60.8125 56.1925 61.8125 58.6875C64.4375 65.5625 67.7175 72.0625 71.6525 78.1875C75.5875 84.3125 80.1825 90 85.4375 95.25C90.6925 100.5 96.38 105.095 102.5 109.035C108.62 112.975 115.12 116.255 122 118.875C124.5 119.875 126.033 121.563 126.598 123.938C127.163 126.313 126.568 128.313 124.813 129.938C120.063 134.063 114.78 137.188 108.965 139.313C103.15 141.438 97.06 142.5 90.695 142.5M132.508 106.5C130.508 105.875 129.07 104.593 128.195 102.653C127.32 100.713 127.07 98.6825 127.445 96.5625C128.57 90.5625 128.195 84.655 126.32 78.84C124.445 73.025 121.32 67.9325 116.945 63.5625C112.57 59.1925 107.538 56.1 101.848 54.285C96.1575 52.47 90.3775 52.0625 84.5075 53.0625C82.3825 53.4375 80.3825 53.1875 78.5075 52.3125C76.6325 51.4375 75.3175 50 74.5625 48C73.8075 46 73.9025 44.0625 74.8475 42.1875C75.7925 40.3125 77.26 39.125 79.25 38.625C87.875 36.75 96.5 37.0325 105.125 39.4725C113.75 41.9125 121.313 46.38 127.813 52.875C134.188 59.25 138.625 66.75 141.125 75.375C143.625 84 143.938 92.625 142.063 101.25C141.563 103.375 140.375 104.938 138.5 105.938C136.625 106.938 134.633 107.125 132.508 106.5ZM90.5 22.5C88.375 22.5 86.595 21.78 85.16 20.34C83.725 18.9 83.005 17.12 83 15V7.50003C83 5.37503 83.72 3.59503 85.16 2.16003C86.6 0.725026 88.38 0.00502586 90.5 2.58621e-05C92.62 -0.00497414 94.4025 0.715026 95.8475 2.16003C97.2925 3.60503 98.01 5.38503 98 7.50003V15C98 17.125 97.28 18.9075 95.84 20.3475C94.4 21.7875 92.62 22.505 90.5 22.5ZM90.5 180C88.375 180 86.595 179.28 85.16 177.84C83.725 176.4 83.005 174.62 83 172.5V165C83 162.875 83.72 161.095 85.16 159.66C86.6 158.225 88.38 157.505 90.5 157.5C92.62 157.495 94.4025 158.215 95.8475 159.66C97.2925 161.105 98.01 162.885 98 165V172.5C98 174.625 97.28 176.408 95.84 177.848C94.4 179.288 92.62 180.005 90.5 180ZM138.313 42.375C136.813 40.875 136.063 39.0925 136.063 37.0275C136.063 34.9625 136.813 33.1825 138.313 31.6875L143.563 26.4375C144.938 25.0625 146.658 24.375 148.723 24.375C150.788 24.375 152.568 25.0625 154.063 26.4375C155.563 27.9375 156.313 29.7175 156.313 31.7775C156.313 33.8375 155.563 35.62 154.063 37.125L148.813 42.375C147.313 43.875 145.563 44.625 143.563 44.625C141.563 44.625 139.813 43.875 138.313 42.375ZM26.9375 153.563C25.4375 152.063 24.6875 150.283 24.6875 148.223C24.6875 146.163 25.4375 144.38 26.9375 142.875L32.1875 137.625C33.6875 136.125 35.4375 135.375 37.4375 135.375C39.4375 135.375 41.1875 136.125 42.6875 137.625C44.1875 139.125 44.9375 140.908 44.9375 142.973C44.9375 145.038 44.1875 146.818 42.6875 148.313L37.4375 153.563C36.0625 154.938 34.345 155.625 32.285 155.625C30.225 155.625 28.4425 154.938 26.9375 153.563ZM165.5 97.5C163.375 97.5 161.595 96.78 160.16 95.34C158.725 93.9 158.005 92.12 158 90C157.995 87.88 158.715 86.1 160.16 84.66C161.605 83.22 163.385 82.5 165.5 82.5H173C175.125 82.5 176.908 83.22 178.348 84.66C179.788 86.1 180.505 87.88 180.5 90C180.495 92.12 179.775 93.9025 178.34 95.3475C176.905 96.7925 175.125 97.51 173 97.5H165.5ZM8.00003 97.5C5.87503 97.5 4.09503 96.78 2.66003 95.34C1.22503 93.9 0.505026 92.12 0.500026 90C0.495026 87.88 1.21503 86.1 2.66003 84.66C4.10503 83.22 5.88503 82.5 8.00003 82.5H15.5C17.625 82.5 19.4075 83.22 20.8475 84.66C22.2875 86.1 23.005 87.88 23 90C22.995 92.12 22.275 93.9025 20.84 95.3475C19.405 96.7925 17.625 97.51 15.5 97.5H8.00003ZM154.063 153.563C152.563 155.063 150.783 155.813 148.723 155.813C146.663 155.813 144.88 155.063 143.375 153.563L138.125 148.313C136.625 146.813 135.875 145.063 135.875 143.063C135.875 141.063 136.625 139.313 138.125 137.813C139.625 136.313 141.408 135.563 143.473 135.563C145.538 135.563 147.318 136.313 148.813 137.813L154.063 143.063C155.438 144.438 156.125 146.158 156.125 148.223C156.125 150.288 155.438 152.068 154.063 153.563ZM42.875 42.1875C41.375 43.6875 39.595 44.4375 37.535 44.4375C35.475 44.4375 33.6925 43.6875 32.1875 42.1875L26.9375 36.9375C25.5625 35.5625 24.875 33.845 24.875 31.785C24.875 29.725 25.5625 27.9425 26.9375 26.4375C28.4375 24.9375 30.22 24.1875 32.285 24.1875C34.35 24.1875 36.13 24.9375 37.625 26.4375L42.875 31.6875C44.375 33.1875 45.125 34.9375 45.125 36.9375C45.125 38.9375 44.375 40.6875 42.875 42.1875Z" fill="#333333"/>
</g>
<defs>
<clipPath id="clip0_43_2560">
<rect width="180" height="180" fill="white" transform="translate(0.5)"/>
</clipPath>
</defs>
</svg>
