<svg width="229" height="228" viewBox="0 0 229 228" fill="none" xmlns="http://www.w3.org/2000/svg">
<g clip-path="url(#clip0_51_97)">
<path d="M264.638 50.5C264.654 67.9278 259.488 84.9669 249.795 99.4507C240.103 113.935 226.321 125.209 210.204 131.839C194.086 138.489 176.36 140.219 159.261 136.81C142.161 133.401 126.454 125.006 114.118 112.684C101.793 100.36 93.406 84.6533 90.0212 67.5557C86.6364 50.4582 88.4061 32.7406 95.1059 16.6503C101.806 0.560089 113.134 -13.1777 127.653 -22.8203C142.172 -32.4629 159.228 -37.5758 176.657 -37.5104C200.01 -37.5037 222.406 -28.2313 238.93 -11.7285C247.093 -3.55444 253.564 6.14927 257.973 16.8272C262.382 27.5052 264.641 38.9477 264.623 50.5M47.3777 66.0017H30.3229C26.2089 66.0017 22.2629 64.3694 19.3511 61.4631C16.4393 58.5568 14.7995 54.614 14.7916 50.5C14.7897 48.4612 15.1903 46.4422 15.9705 44.5586C16.7507 42.675 17.8951 40.9641 19.3381 39.5238C20.7811 38.0836 22.4942 36.9424 24.3793 36.1658C26.2643 35.3892 28.2841 34.9925 30.3229 34.9983H47.3777C51.4917 34.9983 55.4377 36.6306 58.3495 39.5368C61.2613 42.4431 62.9011 46.386 62.9089 50.5C62.9109 52.5387 62.5103 54.5578 61.7301 56.4414C60.9499 58.3249 59.8055 60.0359 58.3625 61.4761C56.9195 62.9164 55.2063 64.0575 53.3213 64.8341C51.4362 65.6107 49.4164 66.0075 47.3777 66.0017ZM324.677 66.0017H307.77C303.659 65.9977 299.717 64.3637 296.808 61.4579C293.899 58.552 292.262 54.6114 292.254 50.5C292.252 48.4612 292.652 46.4422 293.433 44.5586C294.213 42.675 295.357 40.9641 296.8 39.5238C298.243 38.0836 299.956 36.9424 301.841 36.1658C303.726 35.3892 305.746 34.9925 307.785 34.9983H324.692C328.803 35.0022 332.745 36.6362 335.654 39.5421C338.563 42.4479 340.2 46.3885 340.208 50.5C340.21 52.5387 339.81 54.5578 339.029 56.4414C338.249 58.3249 337.105 60.0359 335.662 61.4761C334.219 62.9164 332.506 64.0575 330.621 64.8341C328.736 65.6107 326.716 66.0075 324.677 66.0017ZM177.278 -64.165C173.164 -64.165 169.218 -65.7973 166.306 -68.7035C163.394 -71.6098 161.755 -75.5527 161.747 -79.6667V-96.7067C161.745 -98.7467 162.146 -100.767 162.927 -102.651C163.708 -104.536 164.854 -106.248 166.299 -107.688C167.743 -109.129 169.458 -110.269 171.345 -111.045C173.231 -111.821 175.253 -112.216 177.293 -112.208C181.404 -112.204 185.347 -110.57 188.255 -107.665C191.164 -104.759 192.802 -100.818 192.809 -96.7067V-79.6667C192.811 -77.6279 192.411 -75.6088 191.63 -73.7253C190.85 -71.8417 189.706 -70.1307 188.263 -68.6905C186.82 -67.2503 185.107 -66.1091 183.222 -65.3325C181.337 -64.5559 179.317 -64.1592 177.278 -64.165ZM177.278 213.208C173.167 213.208 169.223 211.578 166.311 208.675C163.4 205.772 161.759 201.833 161.747 197.721V180.667C161.745 178.628 162.145 176.609 162.926 174.725C163.706 172.842 164.85 171.131 166.293 169.69C167.736 168.25 169.449 167.109 171.334 166.332C173.22 165.556 175.239 165.159 177.278 165.165C181.39 165.169 185.332 166.803 188.24 169.709C191.149 172.615 192.787 176.555 192.795 180.667V197.707C192.797 199.745 192.396 201.764 191.616 203.648C190.836 205.532 189.691 207.243 188.248 208.683C186.805 210.123 185.092 211.264 183.207 212.041C181.322 212.817 179.317 213.214 177.278 213.208ZM85.0964 -26.0469C83.0438 -26.0545 81.0131 -26.4688 79.1216 -27.266C77.2301 -28.0633 75.5154 -29.2275 74.0766 -30.6915L61.9623 -42.6283C59.7771 -44.8027 58.2877 -47.5776 57.6834 -50.6004C57.079 -53.6231 57.387 -56.7574 58.5681 -59.6048C59.7492 -62.4521 61.7502 -64.8841 64.3167 -66.5915C66.8832 -68.299 69.8994 -69.2049 72.982 -69.1942C77.1237 -69.1942 81.0879 -67.5523 84.0018 -64.6383L96.1162 -52.5535C99.0085 -49.6508 100.632 -45.7202 100.632 -41.6225C100.632 -37.5248 99.0085 -33.5942 96.1162 -30.6915C94.6774 -29.2275 92.9627 -28.0633 91.0713 -27.266C89.1798 -26.4688 87.149 -26.0545 85.0964 -26.0469ZM281.397 169.514C277.323 169.499 273.419 167.884 270.525 165.017L258.425 152.932C255.522 150.494 253.615 147.076 253.063 143.326C252.512 139.575 253.355 135.753 255.434 132.583C257.512 129.412 260.681 127.114 264.34 126.124C267.999 125.134 271.894 125.52 275.288 127.21C277.22 128.156 278.897 129.448 280.317 131.085L292.416 143.17C295.304 146.072 296.925 149.999 296.925 154.093C296.925 158.187 295.304 162.115 292.416 165.017C290.965 166.454 289.245 167.591 287.354 168.363C285.463 169.134 283.439 169.526 281.397 169.514ZM269.445 -26.0469C267.145 -26.0381 264.871 -26.5405 262.788 -27.5176C260.706 -28.4948 258.866 -29.9224 257.403 -31.6973C255.939 -33.4722 254.888 -35.55 254.326 -37.7807C253.763 -40.0113 253.703 -42.339 254.15 -44.5956C254.742 -47.6131 256.251 -50.3792 258.44 -52.5535L270.54 -64.6383C273.491 -67.3743 277.389 -68.8578 281.413 -68.7761C285.437 -68.6945 289.272 -67.0542 292.11 -64.2007C294.948 -61.3473 296.568 -57.5035 296.628 -53.4794C296.688 -49.4553 295.183 -45.5651 292.431 -42.6283L280.302 -30.6915C277.436 -27.7742 273.534 -26.1052 269.445 -26.0469ZM72.982 169.514C70.9398 169.526 68.9153 169.134 67.0243 168.363C65.1334 167.591 63.4132 166.454 61.9623 165.017C59.0709 162.117 57.4473 158.189 57.4473 154.093C57.4473 149.998 59.0709 146.07 61.9623 143.17L74.0766 131.085C75.5202 129.631 77.237 128.478 79.1283 127.691C81.0196 126.904 83.0479 126.498 85.0964 126.498C87.145 126.498 89.1733 126.904 91.0645 127.691C92.9558 128.478 94.6726 129.631 96.1162 131.085C99.0039 133.987 100.625 137.915 100.625 142.009C100.625 146.103 99.0039 150.03 96.1162 152.932L84.0018 165.017C82.5509 166.454 80.8307 167.591 78.9398 168.363C77.0488 169.134 75.0243 169.526 72.982 169.514Z" fill="#CDCD15"/>
</g>
<defs>
<clipPath id="clip0_51_97">
<rect width="229" height="228" fill="white"/>
</clipPath>
</defs>
</svg>
