<svg width="50" height="50" viewBox="0 0 50 50" fill="none" xmlns="http://www.w3.org/2000/svg">
<path d="M38.3886 25C38.3912 27.6778 37.5974 30.2958 36.1081 32.5212C34.6188 34.7467 32.5014 36.4789 30.025 37.4977C27.5485 38.5195 24.8249 38.7852 22.1976 38.2615C19.5702 37.7377 17.1568 36.4479 15.2614 34.5545C13.3676 32.661 12.079 30.2476 11.559 27.6206C11.0389 24.9936 11.3108 22.2713 12.3402 19.799C13.3696 17.3268 15.1102 15.216 17.341 13.7344C19.5718 12.2528 22.1925 11.4672 24.8705 11.4773C28.4586 11.4783 31.8998 12.903 34.4386 15.4386C35.6929 16.6946 36.6872 18.1856 37.3646 19.8262C38.042 21.4669 38.3892 23.225 38.3864 25M5.00682 27.3818H2.38636C1.75425 27.3818 1.14796 27.131 0.700556 26.6845C0.253156 26.2379 0.00120513 25.6321 1.09481e-06 25C-0.000299382 24.6868 0.0612537 24.3765 0.181129 24.0871C0.301005 23.7977 0.476844 23.5348 0.698557 23.3135C0.920271 23.0922 1.1835 22.9169 1.47313 22.7976C1.76277 22.6783 2.07311 22.6173 2.38636 22.6182H5.00682C5.63893 22.6182 6.24523 22.869 6.69263 23.3155C7.14003 23.7621 7.39198 24.3679 7.39318 25C7.39348 25.3133 7.33193 25.6235 7.21205 25.9129C7.09218 26.2023 6.91634 26.4652 6.69463 26.6865C6.47291 26.9078 6.20969 27.0831 5.92005 27.2024C5.63042 27.3218 5.32007 27.3827 5.00682 27.3818ZM47.6136 27.3818H45.0159C44.3842 27.3812 43.7785 27.1302 43.3316 26.6837C42.8847 26.2372 42.633 25.6317 42.6318 25C42.6315 24.6868 42.6931 24.3765 42.8129 24.0871C42.9328 23.7977 43.1087 23.5348 43.3304 23.3135C43.5521 23.0922 43.8153 22.9169 44.1049 22.7976C44.3946 22.6783 44.7049 22.6173 45.0182 22.6182H47.6159C48.2476 22.6188 48.8533 22.8698 49.3002 23.3163C49.7472 23.7628 49.9988 24.3683 50 25C50.0003 25.3133 49.9387 25.6235 49.8189 25.9129C49.699 26.2023 49.5232 26.4652 49.3014 26.6865C49.0797 26.9078 48.8165 27.0831 48.5269 27.2024C48.2372 27.3218 47.9269 27.3827 47.6136 27.3818ZM24.9659 7.38183C24.3338 7.38183 23.7275 7.13104 23.2801 6.68449C22.8327 6.23794 22.5808 5.63213 22.5795 5.00001V2.38183C22.5792 2.06839 22.6409 1.75798 22.7609 1.46842C22.8809 1.17886 23.0569 0.915871 23.2789 0.694549C23.5009 0.473228 23.7644 0.297938 24.0543 0.178749C24.3441 0.0595599 24.6547 -0.00118027 24.9682 1.73714e-05C25.5999 0.000617866 26.2056 0.251679 26.6525 0.698161C27.0994 1.14464 27.3511 1.75011 27.3523 2.38183V5.00001C27.3526 5.31327 27.291 5.6235 27.1711 5.9129C27.0513 6.20231 26.8754 6.4652 26.6537 6.68649C26.432 6.90778 26.1688 7.08312 25.8791 7.20244C25.5895 7.32177 25.2792 7.38273 24.9659 7.38183ZM24.9659 50C24.3342 50 23.7282 49.7495 23.2809 49.3035C22.8336 48.8574 22.5814 48.2522 22.5795 47.6204V45C22.5792 44.6867 22.6408 44.3765 22.7607 44.0871C22.8805 43.7977 23.0564 43.5348 23.2781 43.3135C23.4998 43.0922 23.763 42.9169 24.0527 42.7976C24.3423 42.6782 24.6527 42.6173 24.9659 42.6182C25.5976 42.6188 26.2033 42.8698 26.6502 43.3163C27.0972 43.7628 27.3488 44.3683 27.35 45V47.6182C27.3503 47.9314 27.2887 48.2417 27.1689 48.5311C27.049 48.8205 26.8732 49.0834 26.6514 49.3046C26.4297 49.5259 26.1665 49.7013 25.8769 49.8206C25.5872 49.9399 25.2792 50.0009 24.9659 50ZM10.8023 13.2386C10.4869 13.2375 10.1749 13.1738 9.88424 13.0513C9.59362 12.9288 9.33016 12.7499 9.10909 12.525L7.24773 10.6909C6.91198 10.3568 6.68314 9.93048 6.59028 9.46603C6.49742 9.00158 6.54474 8.52001 6.72622 8.08251C6.90769 7.64501 7.21514 7.27135 7.60949 7.009C8.00383 6.74664 8.46727 6.60745 8.94091 6.6091C9.57727 6.6091 10.1864 6.86138 10.6341 7.3091L12.4955 9.16592C12.9398 9.61192 13.1894 10.2159 13.1894 10.8455C13.1894 11.4751 12.9398 12.079 12.4955 12.525C12.2744 12.7499 12.0109 12.9288 11.7203 13.0513C11.4297 13.1738 11.1177 13.2375 10.8023 13.2386ZM40.9636 43.2864C40.3378 43.284 39.7378 43.0359 39.2932 42.5955L37.4341 40.7386C36.9881 40.364 36.695 39.8389 36.6102 39.2626C36.5255 38.6864 36.6551 38.099 36.9744 37.6119C37.2938 37.1248 37.7806 36.7718 38.3429 36.6196C38.9051 36.4674 39.5036 36.5268 40.025 36.7864C40.322 36.9318 40.5795 37.1303 40.7977 37.3818L42.6568 39.2386C43.1005 39.6845 43.3496 40.288 43.3496 40.917C43.3496 41.5461 43.1005 42.1495 42.6568 42.5955C42.4339 42.8163 42.1696 42.991 41.879 43.1095C41.5885 43.2281 41.2774 43.2882 40.9636 43.2864ZM39.1273 13.2386C38.7738 13.24 38.4245 13.1628 38.1045 13.0127C37.7845 12.8625 37.5018 12.6432 37.277 12.3705C37.0521 12.0978 36.8906 11.7785 36.8042 11.4358C36.7178 11.093 36.7086 10.7354 36.7773 10.3886C36.8682 9.92501 37.1 9.50001 37.4364 9.16592L39.2955 7.3091C39.7489 6.88872 40.3479 6.66079 40.9662 6.67333C41.5844 6.68588 42.1736 6.93792 42.6097 7.37635C43.0458 7.81478 43.2946 8.40536 43.3039 9.02366C43.3131 9.64196 43.0819 10.2397 42.6591 10.6909L40.7955 12.525C40.355 12.9733 39.7556 13.2297 39.1273 13.2386ZM8.94091 43.2864C8.62712 43.2882 8.31605 43.2281 8.02551 43.1095C7.73497 42.991 7.47067 42.8163 7.24773 42.5955C6.80348 42.1498 6.55401 41.5463 6.55401 40.917C6.55401 40.2878 6.80348 39.6842 7.24773 39.2386L9.10909 37.3818C9.33089 37.1585 9.59469 36.9812 9.88528 36.8603C10.1759 36.7393 10.4875 36.6771 10.8023 36.6771C11.117 36.6771 11.4287 36.7393 11.7193 36.8603C12.0099 36.9812 12.2737 37.1585 12.4955 37.3818C12.9392 37.8277 13.1882 38.4312 13.1882 39.0602C13.1882 39.6893 12.9392 40.2927 12.4955 40.7386L10.6341 42.5955C10.4112 42.8163 10.1468 42.991 9.85631 43.1095C9.56577 43.2281 9.2547 43.2882 8.94091 43.2864Z" fill="#CDCD15"/>
</svg>
